

#include <stdint.h>
const uint8_t pirates[] =
{0x4D, 0x54, 0x68, 0x64, 0x00, 0x00, 0x00, 0x06, 0x00, 0x01, 0x00, 0x03, 0x00, 0xC0, 0x4D, 0x54,
0x72, 0x6B, 0x00, 0x00, 0x00, 0xBF, 0x00, 0xFF, 0x03, 0x0D, 0x48, 0x65, 0x27, 0x73, 0x20, 0x41,
0x20, 0x50, 0x69, 0x72, 0x61, 0x74, 0x65, 0x00, 0xFF, 0x01, 0x1A, 0x42, 0x79, 0x20, 0x57, 0x72,
0x69, 0x74, 0x74, 0x65, 0x6E, 0x20, 0x62, 0x79, 0x20, 0x4B, 0x6C, 0x61, 0x75, 0x73, 0x20, 0x42,
0x61, 0x64, 0x65, 0x6C, 0x74, 0x00, 0xFF, 0x02, 0x26, 0x41, 0x72, 0x72, 0x61, 0x6E, 0x67, 0x65,
0x6D, 0x65, 0x6E, 0x74, 0x20, 0xA9, 0x20, 0x32, 0x30, 0x30, 0x34, 0x20, 0x43, 0x65, 0x72, 0x75,
0x6C, 0x6C, 0x65, 0x61, 0x6E, 0x20, 0x50, 0x69, 0x63, 0x74, 0x75, 0x72, 0x65, 0x73, 0x20, 0x00,
0xFF, 0x02, 0x25, 0x4F, 0x72, 0x69, 0x67, 0x69, 0x6E, 0x61, 0x6C, 0x20, 0x53, 0x63, 0x6F, 0x72,
0x65, 0x20, 0xA9, 0x20, 0x57, 0x61, 0x6C, 0x74, 0x20, 0x44, 0x69, 0x73, 0x6E, 0x65, 0x79, 0x20,
0x50, 0x69, 0x63, 0x74, 0x75, 0x72, 0x65, 0x73, 0x00, 0xFF, 0x01, 0x20, 0x47, 0x65, 0x6E, 0x65,
0x72, 0x61, 0x74, 0x65, 0x64, 0x20, 0x62, 0x79, 0x20, 0x4E, 0x6F, 0x74, 0x65, 0x57, 0x6F, 0x72,
0x74, 0x68, 0x79, 0x20, 0x43, 0x6F, 0x6D, 0x70, 0x6F, 0x73, 0x65, 0x72, 0x00, 0xFF, 0x51, 0x03,
0x04, 0x93, 0xE0, 0x00, 0xFF, 0x59, 0x02, 0xFF, 0x00, 0x00, 0xFF, 0x58, 0x04, 0x06, 0x03, 0x18,
0x08, 0x00, 0xFF, 0x2F, 0x00, 0x4D, 0x54, 0x72, 0x6B, 0x00, 0x00, 0x14, 0xC8, 0x00, 0xFF, 0x21,
0x01, 0x00, 0x00, 0xFF, 0x03, 0x0A, 0x52, 0x69, 0x67, 0x68, 0x74, 0x20, 0x48, 0x61, 0x6E, 0x64,
0x00, 0xB0, 0x40, 0x00, 0x00, 0xC0, 0x00, 0x00, 0xB0, 0x07, 0x7F, 0x00, 0xB0, 0x0A, 0x40, 0x00,
0xC0, 0x00, 0x00, 0xB0, 0x07, 0x7F, 0x00, 0xB0, 0x0A, 0x40, 0x00, 0xB0, 0x40, 0x7F, 0x00, 0x90,
0x3E, 0x6E, 0x81, 0x20, 0x90, 0x3E, 0x00, 0x20, 0x90, 0x3E, 0x6E, 0x5E, 0x90, 0x3E, 0x00, 0x02,
0x90, 0x3E, 0x6E, 0x81, 0x20, 0x90, 0x3E, 0x00, 0x20, 0x90, 0x3E, 0x6E, 0x5E, 0x90, 0x3E, 0x00,
0x02, 0x90, 0x3E, 0x6E, 0x81, 0x20, 0x90, 0x3E, 0x00, 0x20, 0x90, 0x3E, 0x6E, 0x5E, 0x90, 0x3E,
0x00, 0x02, 0x90, 0x3E, 0x6E, 0x5E, 0x90, 0x3E, 0x00, 0x02, 0x90, 0x3E, 0x6E, 0x5E, 0x90, 0x3E,
0x00, 0x02, 0x90, 0x3E, 0x6E, 0x5E, 0x90, 0x3E, 0x00, 0x02, 0x90, 0x3E, 0x6E, 0x81, 0x20, 0x90,
0x3E, 0x00, 0x20, 0x90, 0x3E, 0x6E, 0x5E, 0x90, 0x3E, 0x00, 0x02, 0x90, 0x3E, 0x6E, 0x81, 0x20,
0x90, 0x3E, 0x00, 0x20, 0x90, 0x3E, 0x6E, 0x5E, 0x90, 0x3E, 0x00, 0x02, 0x90, 0x3E, 0x6E, 0x81,
0x20, 0x90, 0x3E, 0x00, 0x20, 0x90, 0x3E, 0x6E, 0x5E, 0x90, 0x3E, 0x00, 0x02, 0x90, 0x3E, 0x6E,
0x5E, 0x90, 0x3E, 0x00, 0x02, 0x90, 0x3E, 0x6E, 0x5E, 0x90, 0x3E, 0x00, 0x02, 0x90, 0x3E, 0x6E,
0x5E, 0x90, 0x3E, 0x00, 0x02, 0x90, 0x3E, 0x6E, 0x81, 0x20, 0x90, 0x3E, 0x00, 0x20, 0x90, 0x3E,
0x6E, 0x5E, 0x90, 0x3E, 0x00, 0x02, 0x90, 0x3E, 0x6E, 0x81, 0x20, 0x90, 0x3E, 0x00, 0x20, 0x90,
0x3E, 0x6E, 0x5E, 0x90, 0x3E, 0x00, 0x02, 0x90, 0x3E, 0x6E, 0x81, 0x20, 0x90, 0x3E, 0x00, 0x20,
0x90, 0x3E, 0x6E, 0x5E, 0x90, 0x3E, 0x00, 0x02, 0x90, 0x3E, 0x6E, 0x5E, 0x90, 0x3E, 0x00, 0x02,
0x90, 0x39, 0x6E, 0x5E, 0x90, 0x39, 0x00, 0x02, 0x90, 0x3C, 0x6E, 0x5E, 0x90, 0x3C, 0x00, 0x02,
0xB0, 0x40, 0x00, 0x00, 0xB0, 0x40, 0x7F, 0x00, 0x90, 0x35, 0x6E, 0x00, 0x90, 0x39, 0x6E, 0x00,
0x90, 0x3E, 0x6E, 0x81, 0x20, 0x90, 0x35, 0x00, 0x00, 0x90, 0x39, 0x00, 0x00, 0x90, 0x3E, 0x00,
0x20, 0x90, 0x35, 0x6E, 0x00, 0x90, 0x39, 0x6E, 0x00, 0x90, 0x3E, 0x6E, 0x81, 0x20, 0x90, 0x35,
0x00, 0x00, 0x90, 0x39, 0x00, 0x00, 0x90, 0x3E, 0x00, 0x20, 0x90, 0x35, 0x6E, 0x00, 0x90, 0x39,
0x6E, 0x00, 0x90, 0x3E, 0x6E, 0x5E, 0x90, 0x35, 0x00, 0x00, 0x90, 0x39, 0x00, 0x00, 0x90, 0x3E,
0x00, 0x02, 0x90, 0x39, 0x6E, 0x00, 0x90, 0x3C, 0x6E, 0x00, 0x90, 0x40, 0x6E, 0x5E, 0x90, 0x39,
0x00, 0x00, 0x90, 0x3C, 0x00, 0x00, 0x90, 0x40, 0x00, 0x02, 0xB0, 0x40, 0x00, 0x00, 0xB0, 0x40,
0x7F, 0x00, 0x90, 0x3A, 0x6E, 0x00, 0x90, 0x3E, 0x6E, 0x00, 0x90, 0x41, 0x6E, 0x81, 0x20, 0x90,
0x3A, 0x00, 0x00, 0x90, 0x3E, 0x00, 0x00, 0x90, 0x41, 0x00, 0x20, 0x90, 0x3A, 0x6E, 0x00, 0x90,
0x3E, 0x6E, 0x00, 0x90, 0x41, 0x6E, 0x81, 0x20, 0x90, 0x3A, 0x00, 0x00, 0x90, 0x3E, 0x00, 0x00,
0x90, 0x41, 0x00, 0x20, 0x90, 0x3A, 0x6E, 0x00, 0x90, 0x3E, 0x6E, 0x00, 0x90, 0x41, 0x6E, 0x5E,
0x90, 0x3A, 0x00, 0x00, 0x90, 0x3E, 0x00, 0x00, 0x90, 0x41, 0x00, 0x02, 0x90, 0x3E, 0x6E, 0x00,
0x90, 0x43, 0x6E, 0x5E, 0x90, 0x3E, 0x00, 0x00, 0x90, 0x43, 0x00, 0x02, 0xB0, 0x40, 0x00, 0x00,
0xB0, 0x40, 0x7F, 0x00, 0x90, 0x39, 0x6E, 0x00, 0x90, 0x3C, 0x6E, 0x00, 0x90, 0x40, 0x6E, 0x81,
0x20, 0x90, 0x39, 0x00, 0x00, 0x90, 0x3C, 0x00, 0x00, 0x90, 0x40, 0x00, 0x20, 0x90, 0x39, 0x6E,
0x00, 0x90, 0x3C, 0x6E, 0x00, 0x90, 0x40, 0x6E, 0x81, 0x20, 0x90, 0x39, 0x00, 0x00, 0x90, 0x3C,
0x00, 0x00, 0x90, 0x40, 0x00, 0x20, 0x90, 0x39, 0x6E, 0x00, 0x90, 0x3E, 0x6E, 0x5E, 0x90, 0x39,
0x00, 0x00, 0x90, 0x3E, 0x00, 0x02, 0x90, 0x37, 0x6E, 0x00, 0x90, 0x3C, 0x6E, 0x5E, 0x90, 0x37,
0x00, 0x00, 0x90, 0x3C, 0x00, 0x02, 0xB0, 0x40, 0x00, 0x00, 0xB0, 0x40, 0x7F, 0x00, 0x90, 0x39,
0x6E, 0x00, 0x90, 0x3C, 0x6E, 0x5E, 0x90, 0x39, 0x00, 0x00, 0x90, 0x3C, 0x00, 0x02, 0x90, 0x39,
0x6E, 0x00, 0x90, 0x3E, 0x6E, 0x81, 0x20, 0x90, 0x39, 0x00, 0x00, 0x90, 0x3E, 0x00, 0x81, 0x00,
0x90, 0x39, 0x6E, 0x5E, 0x90, 0x39, 0x00, 0x02, 0x90, 0x3C, 0x6E, 0x5E, 0x90, 0x3C, 0x00, 0x02,
0xB0, 0x40, 0x00, 0x00, 0xB0, 0x40, 0x7F, 0x00, 0x90, 0x35, 0x6E, 0x00, 0x90, 0x3A, 0x6E, 0x00,
0x90, 0x3E, 0x6E, 0x81, 0x20, 0x90, 0x35, 0x00, 0x00, 0x90, 0x3A, 0x00, 0x00, 0x90, 0x3E, 0x00,
0x20, 0x90, 0x35, 0x6E, 0x00, 0x90, 0x3A, 0x6E, 0x00, 0x90, 0x3E, 0x6E, 0x81, 0x20, 0x90, 0x35,
0x00, 0x00, 0x90, 0x3A, 0x00, 0x00, 0x90, 0x3E, 0x00, 0x20, 0x90, 0x3A, 0x6E, 0x00, 0x90, 0x3E,
0x6E, 0x5E, 0x90, 0x3A, 0x00, 0x00, 0x90, 0x3E, 0x00, 0x02, 0x90, 0x3A, 0x6E, 0x00, 0x90, 0x40,
0x6E, 0x5E, 0x90, 0x3A, 0x00, 0x00, 0x90, 0x40, 0x00, 0x02, 0xB0, 0x40, 0x00, 0x00, 0xB0, 0x40,
0x7F, 0x00, 0x90, 0x39, 0x6E, 0x00, 0x90, 0x3C, 0x6E, 0x00, 0x90, 0x41, 0x6E, 0x81, 0x20, 0x90,
0x39, 0x00, 0x00, 0x90, 0x3C, 0x00, 0x00, 0x90, 0x41, 0x00, 0x20, 0x90, 0x39, 0x6E, 0x00, 0x90,
0x3C, 0x6E, 0x00, 0x90, 0x41, 0x6E, 0x81, 0x20, 0x90, 0x39, 0x00, 0x00, 0x90, 0x3C, 0x00, 0x00,
0x90, 0x41, 0x00, 0x20, 0x90, 0x3C, 0x6E, 0x00, 0x90, 0x41, 0x6E, 0x5E, 0x90, 0x3C, 0x00, 0x00,
0x90, 0x41, 0x00, 0x02, 0x90, 0x3C, 0x6E, 0x00, 0x90, 0x43, 0x6E, 0x5E, 0x90, 0x3C, 0x00, 0x00,
0x90, 0x43, 0x00, 0x02, 0xB0, 0x40, 0x00, 0x00, 0xB0, 0x40, 0x7F, 0x00, 0x90, 0x3C, 0x6E, 0x00,
0x90, 0x40, 0x6E, 0x81, 0x20, 0x90, 0x3C, 0x00, 0x00, 0x90, 0x40, 0x00, 0x20, 0x90, 0x3C, 0x6E,
0x00, 0x90, 0x40, 0x6E, 0x81, 0x20, 0x90, 0x3C, 0x00, 0x00, 0x90, 0x40, 0x00, 0x20, 0x90, 0x39,
0x6E, 0x00, 0x90, 0x3E, 0x6E, 0x5E, 0x90, 0x39, 0x00, 0x00, 0x90, 0x3E, 0x00, 0x02, 0x90, 0x3C,
0x6E, 0x5E, 0x90, 0x3C, 0x00, 0x02, 0xB0, 0x40, 0x00, 0x00, 0xB0, 0x40, 0x7F, 0x00, 0x90, 0x35,
0x6E, 0x00, 0x90, 0x39, 0x6E, 0x00, 0x90, 0x3E, 0x6E, 0x81, 0x20, 0x90, 0x35, 0x00, 0x00, 0x90,
0x39, 0x00, 0x00, 0x90, 0x3E, 0x00, 0x81, 0x60, 0x90, 0x39, 0x6E, 0x5E, 0x90, 0x39, 0x00, 0x02,
0x90, 0x3C, 0x6E, 0x5E, 0x90, 0x3C, 0x00, 0x02, 0xB0, 0x40, 0x00, 0x00, 0xB0, 0x40, 0x7F, 0x00,
0x90, 0x35, 0x6E, 0x00, 0x90, 0x39, 0x6E, 0x00, 0x90, 0x3E, 0x6E, 0x81, 0x20, 0x90, 0x35, 0x00,
0x00, 0x90, 0x39, 0x00, 0x00, 0x90, 0x3E, 0x00, 0x20, 0x90, 0x35, 0x6E, 0x00, 0x90, 0x39, 0x6E,
0x00, 0x90, 0x3E, 0x6E, 0x81, 0x20, 0x90, 0x35, 0x00, 0x00, 0x90, 0x39, 0x00, 0x00, 0x90, 0x3E,
0x00, 0x20, 0x90, 0x39, 0x6E, 0x00, 0x90, 0x3E, 0x6E, 0x5E, 0x90, 0x39, 0x00, 0x00, 0x90, 0x3E,
0x00, 0x02, 0x90, 0x39, 0x6E, 0x00, 0x90, 0x41, 0x6E, 0x5E, 0x90, 0x39, 0x00, 0x00, 0x90, 0x41,
0x00, 0x02, 0xB0, 0x40, 0x00, 0x00, 0xB0, 0x40, 0x7F, 0x00, 0x90, 0x3A, 0x6E, 0x00, 0x90, 0x3E,
0x6E, 0x00, 0x90, 0x43, 0x6E, 0x81, 0x20, 0x90, 0x3A, 0x00, 0x00, 0x90, 0x3E, 0x00, 0x00, 0x90,
0x43, 0x00, 0x20, 0x90, 0x3A, 0x6E, 0x00, 0x90, 0x3E, 0x6E, 0x00, 0x90, 0x43, 0x6E, 0x81, 0x20,
0x90, 0x3A, 0x00, 0x00, 0x90, 0x3E, 0x00, 0x00, 0x90, 0x43, 0x00, 0x20, 0x90, 0x3E, 0x6E, 0x00,
0x90, 0x43, 0x6E, 0x5E, 0x90, 0x3E, 0x00, 0x00, 0x90, 0x43, 0x00, 0x02, 0x90, 0x3E, 0x6E, 0x00,
0x90, 0x45, 0x6E, 0x5E, 0x90, 0x3E, 0x00, 0x00, 0x90, 0x45, 0x00, 0x02, 0xB0, 0x40, 0x00, 0x00,
0xB0, 0x40, 0x7F, 0x00, 0x90, 0x3E, 0x6E, 0x00, 0x90, 0x43, 0x6E, 0x00, 0x90, 0x46, 0x6E, 0x81,
0x20, 0x90, 0x3E, 0x00, 0x00, 0x90, 0x43, 0x00, 0x00, 0x90, 0x46, 0x00, 0x20, 0x90, 0x3E, 0x6E,
0x00, 0x90, 0x43, 0x6E, 0x00, 0x90, 0x46, 0x6E, 0x81, 0x20, 0x90, 0x3E, 0x00, 0x00, 0x90, 0x43,
0x00, 0x00, 0x90, 0x46, 0x00, 0x20, 0x90, 0x41, 0x6E, 0x00, 0x90, 0x45, 0x6E, 0x5E, 0x90, 0x41,
0x00, 0x00, 0x90, 0x45, 0x00, 0x02, 0x90, 0x40, 0x6E, 0x00, 0x90, 0x43, 0x6E, 0x5E, 0x90, 0x40,
0x00, 0x00, 0x90, 0x43, 0x00, 0x02, 0xB0, 0x40, 0x00, 0x00, 0xB0, 0x40, 0x7F, 0x00, 0x90, 0x41,
0x6E, 0x00, 0x90, 0x45, 0x6E, 0x5E, 0x90, 0x41, 0x00, 0x00, 0x90, 0x45, 0x00, 0x02, 0x90, 0x3E,
0x6E, 0x81, 0x20, 0x90, 0x3E, 0x00, 0x81, 0x00, 0x90, 0x3E, 0x6E, 0x5E, 0x90, 0x3E, 0x00, 0x02,
0x90, 0x40, 0x6E, 0x5E, 0x90, 0x40, 0x00, 0x02, 0xB0, 0x40, 0x00, 0x00, 0xB0, 0x40, 0x7F, 0x00,
0x90, 0x3A, 0x6E, 0x00, 0x90, 0x3E, 0x6E, 0x00, 0x90, 0x41, 0x6E, 0x81, 0x20, 0x90, 0x3A, 0x00,
0x00, 0x90, 0x3E, 0x00, 0x00, 0x90, 0x41, 0x00, 0x20, 0x90, 0x3A, 0x6E, 0x00, 0x90, 0x3E, 0x6E,
0x00, 0x90, 0x41, 0x6E, 0x81, 0x20, 0x90, 0x3A, 0x00, 0x00, 0x90, 0x3E, 0x00, 0x00, 0x90, 0x41,
0x00, 0x20, 0x90, 0x3A, 0x6E, 0x00, 0x90, 0x3E, 0x6E, 0x00, 0x90, 0x43, 0x6E, 0x81, 0x20, 0x90,
0x3A, 0x00, 0x00, 0x90, 0x3E, 0x00, 0x00, 0x90, 0x43, 0x00, 0x20, 0xB0, 0x40, 0x00, 0x00, 0xB0,
0x40, 0x7F, 0x00, 0x90, 0x41, 0x6E, 0x00, 0x90, 0x45, 0x6E, 0x5E, 0x90, 0x41, 0x00, 0x00, 0x90,
0x45, 0x00, 0x02, 0x90, 0x3E, 0x6E, 0x81, 0x20, 0x90, 0x3E, 0x00, 0x81, 0x00, 0x90, 0x3E, 0x6E,
0x5E, 0x90, 0x3E, 0x00, 0x02, 0x90, 0x41, 0x6E, 0x5E, 0x90, 0x41, 0x00, 0x02, 0xB0, 0x40, 0x00,
0x00, 0xB0, 0x40, 0x7F, 0x00, 0x90, 0x39, 0x6E, 0x00, 0x90, 0x3D, 0x6E, 0x00, 0x90, 0x40, 0x6E,
0x81, 0x20, 0x90, 0x39, 0x00, 0x00, 0x90, 0x3D, 0x00, 0x00, 0x90, 0x40, 0x00, 0x20, 0x90, 0x39,
0x6E, 0x00, 0x90, 0x3D, 0x6E, 0x00, 0x90, 0x40, 0x6E, 0x81, 0x20, 0x90, 0x39, 0x00, 0x00, 0x90,
0x3D, 0x00, 0x00, 0x90, 0x40, 0x00, 0x20, 0x90, 0x3E, 0x6E, 0x00, 0x90, 0x41, 0x6E, 0x5E, 0x90,
0x3E, 0x00, 0x00, 0x90, 0x41, 0x00, 0x02, 0x90, 0x3B, 0x6E, 0x00, 0x90, 0x3E, 0x6E, 0x5E, 0x90,
0x3B, 0x00, 0x00, 0x90, 0x3E, 0x00, 0x02, 0xB0, 0x40, 0x00, 0x00, 0xB0, 0x40, 0x7F, 0x00, 0x90,
0x39, 0x6E, 0x00, 0x90, 0x3D, 0x6E, 0x00, 0x90, 0x40, 0x6E, 0x5E, 0x90, 0x39, 0x00, 0x00, 0x90,
0x3D, 0x00, 0x00, 0x90, 0x40, 0x00, 0x81, 0x42, 0xB0, 0x40, 0x00, 0x00, 0xB0, 0x40, 0x7F, 0x60,
0x90, 0x45, 0x6E, 0x5E, 0x90, 0x45, 0x00, 0x02, 0x90, 0x48, 0x6E, 0x5E, 0x90, 0x48, 0x00, 0x02,
0xB0, 0x40, 0x00, 0x00, 0xB0, 0x40, 0x7F, 0x00, 0x90, 0x41, 0x6E, 0x00, 0x90, 0x45, 0x6E, 0x00,
0x90, 0x4A, 0x6E, 0x81, 0x20, 0x90, 0x41, 0x00, 0x00, 0x90, 0x45, 0x00, 0x00, 0x90, 0x4A, 0x00,
0x20, 0x90, 0x41, 0x6E, 0x00, 0x90, 0x45, 0x6E, 0x00, 0x90, 0x4A, 0x6E, 0x81, 0x20, 0x90, 0x41,
0x00, 0x00, 0x90, 0x45, 0x00, 0x00, 0x90, 0x4A, 0x00, 0x20, 0x90, 0x41, 0x6E, 0x00, 0x90, 0x45,
0x6E, 0x00, 0x90, 0x4A, 0x6E, 0x5E, 0x90, 0x41, 0x00, 0x00, 0x90, 0x45, 0x00, 0x00, 0x90, 0x4A,
0x00, 0x02, 0x90, 0x45, 0x6E, 0x00, 0x90, 0x48, 0x6E, 0x00, 0x90, 0x4C, 0x6E, 0x5E, 0x90, 0x45,
0x00, 0x00, 0x90, 0x48, 0x00, 0x00, 0x90, 0x4C, 0x00, 0x02, 0xB0, 0x40, 0x00, 0x00, 0xB0, 0x40,
0x7F, 0x00, 0x90, 0x46, 0x6E, 0x00, 0x90, 0x4A, 0x6E, 0x00, 0x90, 0x4D, 0x6E, 0x81, 0x20, 0x90,
0x46, 0x00, 0x00, 0x90, 0x4A, 0x00, 0x00, 0x90, 0x4D, 0x00, 0x20, 0x90, 0x46, 0x6E, 0x00, 0x90,
0x4A, 0x6E, 0x00, 0x90, 0x4D, 0x6E, 0x81, 0x20, 0x90, 0x46, 0x00, 0x00, 0x90, 0x4A, 0x00, 0x00,
0x90, 0x4D, 0x00, 0x20, 0x90, 0x46, 0x6E, 0x00, 0x90, 0x4A, 0x6E, 0x00, 0x90, 0x4D, 0x6E, 0x5E,
0x90, 0x46, 0x00, 0x00, 0x90, 0x4A, 0x00, 0x00, 0x90, 0x4D, 0x00, 0x02, 0x90, 0x4A, 0x6E, 0x00,
0x90, 0x4F, 0x6E, 0x5E, 0x90, 0x4A, 0x00, 0x00, 0x90, 0x4F, 0x00, 0x02, 0xB0, 0x40, 0x00, 0x00,
0xB0, 0x40, 0x7F, 0x00, 0x90, 0x45, 0x6E, 0x00, 0x90, 0x48, 0x6E, 0x00, 0x90, 0x4C, 0x6E, 0x81,
0x20, 0x90, 0x45, 0x00, 0x00, 0x90, 0x48, 0x00, 0x00, 0x90, 0x4C, 0x00, 0x20, 0x90, 0x45, 0x6E,
0x00, 0x90, 0x48, 0x6E, 0x00, 0x90, 0x4C, 0x6E, 0x81, 0x20, 0x90, 0x45, 0x00, 0x00, 0x90, 0x48,
0x00, 0x00, 0x90, 0x4C, 0x00, 0x20, 0x90, 0x45, 0x6E, 0x00, 0x90, 0x4A, 0x6E, 0x5E, 0x90, 0x45,
0x00, 0x00, 0x90, 0x4A, 0x00, 0x02, 0x90, 0x43, 0x6E, 0x00, 0x90, 0x48, 0x6E, 0x5E, 0x90, 0x43,
0x00, 0x00, 0x90, 0x48, 0x00, 0x02, 0xB0, 0x40, 0x00, 0x00, 0xB0, 0x40, 0x7F, 0x00, 0x90, 0x45,
0x6E, 0x00, 0x90, 0x48, 0x6E, 0x5E, 0x90, 0x45, 0x00, 0x00, 0x90, 0x48, 0x00, 0x02, 0x90, 0x45,
0x6E, 0x00, 0x90, 0x4A, 0x6E, 0x81, 0x20, 0x90, 0x45, 0x00, 0x00, 0x90, 0x4A, 0x00, 0x81, 0x00,
0x90, 0x45, 0x6E, 0x5E, 0x90, 0x45, 0x00, 0x02, 0x90, 0x48, 0x6E, 0x5E, 0x90, 0x48, 0x00, 0x02,
0xB0, 0x40, 0x00, 0x00, 0xB0, 0x40, 0x7F, 0x00, 0x90, 0x41, 0x6E, 0x00, 0x90, 0x46, 0x6E, 0x00,
0x90, 0x4A, 0x6E, 0x81, 0x20, 0x90, 0x41, 0x00, 0x00, 0x90, 0x46, 0x00, 0x00, 0x90, 0x4A, 0x00,
0x20, 0x90, 0x41, 0x6E, 0x00, 0x90, 0x46, 0x6E, 0x00, 0x90, 0x4A, 0x6E, 0x81, 0x20, 0x90, 0x41,
0x00, 0x00, 0x90, 0x46, 0x00, 0x00, 0x90, 0x4A, 0x00, 0x20, 0x90, 0x46, 0x6E, 0x00, 0x90, 0x4A,
0x6E, 0x5E, 0x90, 0x46, 0x00, 0x00, 0x90, 0x4A, 0x00, 0x02, 0x90, 0x46, 0x6E, 0x00, 0x90, 0x4C,
0x6E, 0x5E, 0x90, 0x46, 0x00, 0x00, 0x90, 0x4C, 0x00, 0x02, 0xB0, 0x40, 0x00, 0x00, 0xB0, 0x40,
0x7F, 0x00, 0x90, 0x45, 0x6E, 0x00, 0x90, 0x48, 0x6E, 0x00, 0x90, 0x4D, 0x6E, 0x81, 0x20, 0x90,
0x45, 0x00, 0x00, 0x90, 0x48, 0x00, 0x00, 0x90, 0x4D, 0x00, 0x20, 0x90, 0x45, 0x6E, 0x00, 0x90,
0x48, 0x6E, 0x00, 0x90, 0x4D, 0x6E, 0x81, 0x20, 0x90, 0x45, 0x00, 0x00, 0x90, 0x48, 0x00, 0x00,
0x90, 0x4D, 0x00, 0x20, 0x90, 0x48, 0x6E, 0x00, 0x90, 0x4D, 0x6E, 0x5E, 0x90, 0x48, 0x00, 0x00,
0x90, 0x4D, 0x00, 0x02, 0x90, 0x48, 0x6E, 0x00, 0x90, 0x4F, 0x6E, 0x5E, 0x90, 0x48, 0x00, 0x00,
0x90, 0x4F, 0x00, 0x02, 0xB0, 0x40, 0x00, 0x00, 0xB0, 0x40, 0x7F, 0x00, 0x90, 0x48, 0x6E, 0x00,
0x90, 0x4C, 0x6E, 0x81, 0x20, 0x90, 0x48, 0x00, 0x00, 0x90, 0x4C, 0x00, 0x20, 0x90, 0x48, 0x6E,
0x00, 0x90, 0x4C, 0x6E, 0x81, 0x20, 0x90, 0x48, 0x00, 0x00, 0x90, 0x4C, 0x00, 0x20, 0x90, 0x45,
0x6E, 0x00, 0x90, 0x4A, 0x6E, 0x5E, 0x90, 0x45, 0x00, 0x00, 0x90, 0x4A, 0x00, 0x02, 0x90, 0x48,
0x6E, 0x5E, 0x90, 0x48, 0x00, 0x02, 0xB0, 0x40, 0x00, 0x00, 0xB0, 0x40, 0x7F, 0x00, 0x90, 0x41,
0x6E, 0x00, 0x90, 0x45, 0x6E, 0x00, 0x90, 0x4A, 0x6E, 0x81, 0x20, 0x90, 0x41, 0x00, 0x00, 0x90,
0x45, 0x00, 0x00, 0x90, 0x4A, 0x00, 0x81, 0x60, 0x90, 0x45, 0x6E, 0x5E, 0x90, 0x45, 0x00, 0x02,
0x90, 0x48, 0x6E, 0x5E, 0x90, 0x48, 0x00, 0x02, 0xB0, 0x40, 0x00, 0x00, 0xB0, 0x40, 0x7F, 0x00,
0x90, 0x41, 0x6E, 0x00, 0x90, 0x45, 0x6E, 0x00, 0x90, 0x4A, 0x6E, 0x81, 0x20, 0x90, 0x41, 0x00,
0x00, 0x90, 0x45, 0x00, 0x00, 0x90, 0x4A, 0x00, 0x20, 0x90, 0x41, 0x6E, 0x00, 0x90, 0x45, 0x6E,
0x00, 0x90, 0x4A, 0x6E, 0x81, 0x20, 0x90, 0x41, 0x00, 0x00, 0x90, 0x45, 0x00, 0x00, 0x90, 0x4A,
0x00, 0x20, 0x90, 0x45, 0x6E, 0x00, 0x90, 0x4A, 0x6E, 0x5E, 0x90, 0x45, 0x00, 0x00, 0x90, 0x4A,
0x00, 0x02, 0x90, 0x45, 0x6E, 0x00, 0x90, 0x4D, 0x6E, 0x5E, 0x90, 0x45, 0x00, 0x00, 0x90, 0x4D,
0x00, 0x02, 0xB0, 0x40, 0x00, 0x00, 0xB0, 0x40, 0x7F, 0x00, 0x90, 0x46, 0x6E, 0x00, 0x90, 0x4A,
0x6E, 0x00, 0x90, 0x4F, 0x6E, 0x81, 0x20, 0x90, 0x46, 0x00, 0x00, 0x90, 0x4A, 0x00, 0x00, 0x90,
0x4F, 0x00, 0x20, 0x90, 0x46, 0x6E, 0x00, 0x90, 0x4A, 0x6E, 0x00, 0x90, 0x4F, 0x6E, 0x81, 0x20,
0x90, 0x46, 0x00, 0x00, 0x90, 0x4A, 0x00, 0x00, 0x90, 0x4F, 0x00, 0x20, 0x90, 0x4A, 0x6E, 0x00,
0x90, 0x4F, 0x6E, 0x5E, 0x90, 0x4A, 0x00, 0x00, 0x90, 0x4F, 0x00, 0x02, 0x90, 0x4A, 0x6E, 0x00,
0x90, 0x51, 0x6E, 0x5E, 0x90, 0x4A, 0x00, 0x00, 0x90, 0x51, 0x00, 0x02, 0xB0, 0x40, 0x00, 0x00,
0xB0, 0x40, 0x7F, 0x00, 0x90, 0x4A, 0x6E, 0x00, 0x90, 0x4F, 0x6E, 0x00, 0x90, 0x52, 0x6E, 0x81,
0x20, 0x90, 0x4A, 0x00, 0x00, 0x90, 0x4F, 0x00, 0x00, 0x90, 0x52, 0x00, 0x20, 0x90, 0x4A, 0x6E,
0x00, 0x90, 0x4F, 0x6E, 0x00, 0x90, 0x52, 0x6E, 0x81, 0x20, 0x90, 0x4A, 0x00, 0x00, 0x90, 0x4F,
0x00, 0x00, 0x90, 0x52, 0x00, 0x20, 0x90, 0x4D, 0x6E, 0x00, 0x90, 0x51, 0x6E, 0x5E, 0x90, 0x4D,
0x00, 0x00, 0x90, 0x51, 0x00, 0x02, 0x90, 0x4C, 0x6E, 0x00, 0x90, 0x4F, 0x6E, 0x5E, 0x90, 0x4C,
0x00, 0x00, 0x90, 0x4F, 0x00, 0x02, 0xB0, 0x40, 0x00, 0x00, 0xB0, 0x40, 0x7F, 0x00, 0x90, 0x4D,
0x6E, 0x00, 0x90, 0x51, 0x6E, 0x5E, 0x90, 0x4D, 0x00, 0x00, 0x90, 0x51, 0x00, 0x02, 0x90, 0x4A,
0x6E, 0x81, 0x20, 0x90, 0x4A, 0x00, 0x81, 0x00, 0x90, 0x4A, 0x6E, 0x5E, 0x90, 0x4A, 0x00, 0x02,
0x90, 0x4C, 0x6E, 0x5E, 0x90, 0x4C, 0x00, 0x02, 0xB0, 0x40, 0x00, 0x00, 0xB0, 0x40, 0x7F, 0x00,
0x90, 0x46, 0x6E, 0x00, 0x90, 0x4A, 0x6E, 0x00, 0x90, 0x4D, 0x6E, 0x81, 0x20, 0x90, 0x46, 0x00,
0x00, 0x90, 0x4A, 0x00, 0x00, 0x90, 0x4D, 0x00, 0x20, 0x90, 0x46, 0x6E, 0x00, 0x90, 0x4A, 0x6E,
0x00, 0x90, 0x4D, 0x6E, 0x81, 0x20, 0x90, 0x46, 0x00, 0x00, 0x90, 0x4A, 0x00, 0x00, 0x90, 0x4D,
0x00, 0x20, 0x90, 0x46, 0x6E, 0x00, 0x90, 0x4A, 0x6E, 0x00, 0x90, 0x4F, 0x6E, 0x81, 0x20, 0x90,
0x46, 0x00, 0x00, 0x90, 0x4A, 0x00, 0x00, 0x90, 0x4F, 0x00, 0x20, 0xB0, 0x40, 0x00, 0x00, 0xB0,
0x40, 0x7F, 0x00, 0x90, 0x4D, 0x6E, 0x00, 0x90, 0x51, 0x6E, 0x5E, 0x90, 0x4D, 0x00, 0x00, 0x90,
0x51, 0x00, 0x02, 0x90, 0x4A, 0x6E, 0x81, 0x20, 0x90, 0x4A, 0x00, 0x81, 0x00, 0x90, 0x4A, 0x6E,
0x5E, 0x90, 0x4A, 0x00, 0x02, 0x90, 0x4D, 0x6E, 0x5E, 0x90, 0x4D, 0x00, 0x02, 0xB0, 0x40, 0x00,
0x00, 0xB0, 0x40, 0x7F, 0x00, 0x90, 0x45, 0x6E, 0x00, 0x90, 0x49, 0x6E, 0x00, 0x90, 0x4C, 0x6E,
0x81, 0x20, 0x90, 0x45, 0x00, 0x00, 0x90, 0x49, 0x00, 0x00, 0x90, 0x4C, 0x00, 0x20, 0x90, 0x45,
0x6E, 0x00, 0x90, 0x49, 0x6E, 0x00, 0x90, 0x4C, 0x6E, 0x81, 0x20, 0x90, 0x45, 0x00, 0x00, 0x90,
0x49, 0x00, 0x00, 0x90, 0x4C, 0x00, 0x20, 0x90, 0x4A, 0x6E, 0x5E, 0x90, 0x4A, 0x00, 0x02, 0x90,
0x49, 0x6E, 0x5E, 0x90, 0x49, 0x00, 0x02, 0xB0, 0x40, 0x00, 0x00, 0xB0, 0x40, 0x7F, 0x00, 0x90,
0x45, 0x6E, 0x00, 0x90, 0x4A, 0x6E, 0x81, 0x20, 0x90, 0x45, 0x00, 0x00, 0x90, 0x4A, 0x00, 0x20,
0x90, 0x45, 0x6E, 0x00, 0x90, 0x4A, 0x6E, 0x81, 0x20, 0x90, 0x45, 0x00, 0x00, 0x90, 0x4A, 0x00,
0x20, 0xB0, 0x40, 0x00, 0x00, 0xB0, 0x40, 0x7F, 0x00, 0x90, 0x45, 0x6E, 0x00, 0x90, 0x48, 0x6E,
0x00, 0x90, 0x4C, 0x6E, 0x81, 0x20, 0x90, 0x45, 0x00, 0x00, 0x90, 0x48, 0x00, 0x00, 0x90, 0x4C,
0x00, 0x20, 0xB0, 0x40, 0x00, 0x00, 0xB0, 0x40, 0x7F, 0x00, 0x90, 0x48, 0x6E, 0x00, 0x90, 0x4A,
0x6E, 0x00, 0x90, 0x4D, 0x6E, 0x81, 0x20, 0x90, 0x48, 0x00, 0x00, 0x90, 0x4A, 0x00, 0x00, 0x90,
0x4D, 0x00, 0x20, 0x90, 0x4D, 0x6E, 0x5E, 0x90, 0x4D, 0x00, 0x02, 0x90, 0x4D, 0x6E, 0x5E, 0x90,
0x4D, 0x00, 0x02, 0xB0, 0x40, 0x00, 0x00, 0xB0, 0x40, 0x7F, 0x00, 0x90, 0x46, 0x6E, 0x00, 0x90,
0x4A, 0x6E, 0x00, 0x90, 0x4F, 0x6E, 0x81, 0x20, 0x90, 0x46, 0x00, 0x00, 0x90, 0x4A, 0x00, 0x00,
0x90, 0x4F, 0x00, 0x20, 0xB0, 0x40, 0x00, 0x00, 0xB0, 0x40, 0x7F, 0x00, 0x90, 0x4A, 0x6E, 0x00,
0x90, 0x51, 0x6E, 0x5E, 0x90, 0x4A, 0x00, 0x00, 0x90, 0x51, 0x00, 0x02, 0x90, 0x4D, 0x6E, 0x5E,
0x90, 0x4D, 0x00, 0x81, 0x42, 0x90, 0x45, 0x6E, 0x00, 0x90, 0x4D, 0x6E, 0x5E, 0x90, 0x45, 0x00,
0x00, 0x90, 0x4D, 0x00, 0x02, 0x90, 0x45, 0x6E, 0x00, 0x90, 0x4A, 0x6E, 0x5E, 0x90, 0x45, 0x00,
0x00, 0x90, 0x4A, 0x00, 0x02, 0x90, 0x45, 0x6E, 0x5E, 0x90, 0x45, 0x00, 0x83, 0x62, 0xB0, 0x40,
0x00, 0x00, 0xB0, 0x40, 0x7F, 0x00, 0x90, 0x4A, 0x6E, 0x00, 0x90, 0x4F, 0x6E, 0x00, 0x90, 0x52,
0x6E, 0x5E, 0x90, 0x4A, 0x00, 0x00, 0x90, 0x4F, 0x00, 0x00, 0x90, 0x52, 0x00, 0x82, 0x22, 0x90,
0x46, 0x6E, 0x00, 0x90, 0x4F, 0x6E, 0x5E, 0x90, 0x46, 0x00, 0x00, 0x90, 0x4F, 0x00, 0x02, 0x90,
0x46, 0x6E, 0x00, 0x90, 0x4A, 0x6E, 0x5E, 0x90, 0x46, 0x00, 0x00, 0x90, 0x4A, 0x00, 0x02, 0x90,
0x46, 0x6E, 0x5E, 0x90, 0x46, 0x00, 0x83, 0x62, 0xB0, 0x40, 0x00, 0x00, 0xB0, 0x40, 0x7F, 0x00,
0x90, 0x3D, 0x6E, 0x00, 0x90, 0x40, 0x6E, 0x5E, 0x90, 0x3D, 0x00, 0x00, 0x90, 0x40, 0x00, 0x02,
0x90, 0x3D, 0x6E, 0x00, 0x90, 0x40, 0x6E, 0x81, 0x20, 0x90, 0x3D, 0x00, 0x00, 0x90, 0x40, 0x00,
0x20, 0x90, 0x37, 0x6E, 0x00, 0x90, 0x3E, 0x6E, 0x82, 0x00, 0x90, 0x37, 0x00, 0x00, 0x90, 0x3E,
0x00, 0x20, 0xB0, 0x40, 0x00, 0x00, 0xB0, 0x40, 0x7F, 0x00, 0x90, 0x39, 0x6E, 0x00, 0x90, 0x3D,
0x6E, 0x00, 0x90, 0x41, 0x6E, 0x82, 0x00, 0x90, 0x39, 0x00, 0x00, 0x90, 0x3D, 0x00, 0x00, 0x90,
0x41, 0x00, 0x81, 0x00, 0x90, 0x41, 0x6E, 0x5E, 0x90, 0x41, 0x00, 0x02, 0x90, 0x43, 0x6E, 0x5E,
0x90, 0x43, 0x00, 0x02, 0xB0, 0x40, 0x00, 0x00, 0xB0, 0x40, 0x7F, 0x00, 0x90, 0x3E, 0x6E, 0x00,
0x90, 0x41, 0x6E, 0x00, 0x90, 0x45, 0x6E, 0x81, 0x20, 0x90, 0x3E, 0x00, 0x00, 0x90, 0x41, 0x00,
0x00, 0x90, 0x45, 0x00, 0x20, 0x90, 0x3E, 0x6E, 0x00, 0x90, 0x41, 0x6E, 0x00, 0x90, 0x45, 0x6E,
0x81, 0x20, 0x90, 0x3E, 0x00, 0x00, 0x90, 0x41, 0x00, 0x00, 0x90, 0x45, 0x00, 0x20, 0x90, 0x3E,
0x6E, 0x00, 0x90, 0x41, 0x6E, 0x00, 0x90, 0x45, 0x6E, 0x81, 0x20, 0x90, 0x3E, 0x00, 0x00, 0x90,
0x41, 0x00, 0x00, 0x90, 0x45, 0x00, 0x20, 0x90, 0x3E, 0x6E, 0x00, 0x90, 0x41, 0x6E, 0x00, 0x90,
0x46, 0x6E, 0x5E, 0x90, 0x3E, 0x00, 0x00, 0x90, 0x41, 0x00, 0x00, 0x90, 0x46, 0x00, 0x02, 0xB0,
0x40, 0x00, 0x00, 0xB0, 0x40, 0x7F, 0x00, 0x90, 0x3E, 0x6E, 0x00, 0x90, 0x41, 0x6E, 0x00, 0x90,
0x45, 0x6E, 0x5E, 0x90, 0x3E, 0x00, 0x00, 0x90, 0x41, 0x00, 0x00, 0x90, 0x45, 0x00, 0x83, 0x02,
0xB0, 0x40, 0x00, 0x00, 0xB0, 0x40, 0x7F, 0x00, 0x90, 0x3C, 0x6E, 0x00, 0x90, 0x40, 0x6E, 0x00,
0x90, 0x43, 0x6E, 0x81, 0x20, 0x90, 0x3C, 0x00, 0x00, 0x90, 0x40, 0x00, 0x00, 0x90, 0x43, 0x00,
0x20, 0x90, 0x3C, 0x6E, 0x00, 0x90, 0x40, 0x6E, 0x00, 0x90, 0x43, 0x6E, 0x81, 0x20, 0x90, 0x3C,
0x00, 0x00, 0x90, 0x40, 0x00, 0x00, 0x90, 0x43, 0x00, 0x20, 0x90, 0x3C, 0x6E, 0x00, 0x90, 0x40,
0x6E, 0x00, 0x90, 0x43, 0x6E, 0x81, 0x20, 0x90, 0x3C, 0x00, 0x00, 0x90, 0x40, 0x00, 0x00, 0x90,
0x43, 0x00, 0x20, 0x90, 0x3C, 0x6E, 0x00, 0x90, 0x40, 0x6E, 0x00, 0x90, 0x43, 0x6E, 0x5E, 0x90,
0x3C, 0x00, 0x00, 0x90, 0x40, 0x00, 0x00, 0x90, 0x43, 0x00, 0x02, 0xB0, 0x40, 0x00, 0x00, 0xB0,
0x40, 0x7F, 0x00, 0x90, 0x3C, 0x6E, 0x00, 0x90, 0x41, 0x6E, 0x00, 0x90, 0x45, 0x6E, 0x5E, 0x90,
0x3C, 0x00, 0x00, 0x90, 0x41, 0x00, 0x00, 0x90, 0x45, 0x00, 0x83, 0x02, 0xB0, 0x40, 0x00, 0x00,
0xB0, 0x40, 0x7F, 0x00, 0x90, 0x3E, 0x6E, 0x00, 0x90, 0x41, 0x6E, 0x00, 0x90, 0x45, 0x6E, 0x81,
0x20, 0x90, 0x3E, 0x00, 0x00, 0x90, 0x41, 0x00, 0x00, 0x90, 0x45, 0x00, 0x20, 0x90, 0x3E, 0x6E,
0x00, 0x90, 0x41, 0x6E, 0x00, 0x90, 0x45, 0x6E, 0x81, 0x20, 0x90, 0x3E, 0x00, 0x00, 0x90, 0x41,
0x00, 0x00, 0x90, 0x45, 0x00, 0x20, 0x90, 0x3E, 0x6E, 0x00, 0x90, 0x41, 0x6E, 0x00, 0x90, 0x45,
0x6E, 0x81, 0x20, 0x90, 0x3E, 0x00, 0x00, 0x90, 0x41, 0x00, 0x00, 0x90, 0x45, 0x00, 0x20, 0x90,
0x3E, 0x6E, 0x00, 0x90, 0x41, 0x6E, 0x00, 0x90, 0x46, 0x6E, 0x5E, 0x90, 0x3E, 0x00, 0x00, 0x90,
0x41, 0x00, 0x00, 0x90, 0x46, 0x00, 0x02, 0xB0, 0x40, 0x00, 0x00, 0xB0, 0x40, 0x7F, 0x00, 0x90,
0x3E, 0x6E, 0x00, 0x90, 0x41, 0x6E, 0x00, 0x90, 0x45, 0x6E, 0x5E, 0x90, 0x3E, 0x00, 0x00, 0x90,
0x41, 0x00, 0x00, 0x90, 0x45, 0x00, 0x83, 0x02, 0xB0, 0x40, 0x00, 0x00, 0xB0, 0x40, 0x7F, 0x00,
0x90, 0x3D, 0x6E, 0x00, 0x90, 0x40, 0x6E, 0x00, 0x90, 0x43, 0x6E, 0x81, 0x20, 0x90, 0x3D, 0x00,
0x00, 0x90, 0x40, 0x00, 0x00, 0x90, 0x43, 0x00, 0x20, 0x90, 0x3D, 0x6E, 0x00, 0x90, 0x41, 0x6E,
0x81, 0x20, 0x90, 0x3D, 0x00, 0x00, 0x90, 0x41, 0x00, 0x20, 0x90, 0x39, 0x6E, 0x00, 0x90, 0x40,
0x6E, 0x81, 0x20, 0x90, 0x39, 0x00, 0x00, 0x90, 0x40, 0x00, 0x20, 0xB0, 0x40, 0x00, 0x00, 0xB0,
0x40, 0x7F, 0x00, 0x90, 0x35, 0x6E, 0x00, 0x90, 0x39, 0x6E, 0x00, 0x90, 0x3E, 0x6E, 0x81, 0x20,
0x90, 0x35, 0x00, 0x00, 0x90, 0x39, 0x00, 0x00, 0x90, 0x3E, 0x00, 0x81, 0x60, 0x90, 0x3E, 0x6E,
0x5E, 0x90, 0x3E, 0x00, 0x02, 0x90, 0x40, 0x6E, 0x5E, 0x90, 0x40, 0x00, 0x02, 0xB0, 0x40, 0x00,
0x00, 0xB0, 0x40, 0x7F, 0x00, 0x90, 0x39, 0x6E, 0x00, 0x90, 0x3E, 0x6E, 0x00, 0x90, 0x41, 0x6E,
0x82, 0x50, 0x90, 0x39, 0x00, 0x00, 0x90, 0x3E, 0x00, 0x00, 0x90, 0x41, 0x00, 0x30, 0x90, 0x43,
0x6E, 0x5E, 0x90, 0x43, 0x00, 0x02, 0x90, 0x45, 0x6E, 0x5E, 0x90, 0x45, 0x00, 0x02, 0xB0, 0x40,
0x00, 0x00, 0xB0, 0x40, 0x7F, 0x00, 0x90, 0x3C, 0x6E, 0x00, 0x90, 0x43, 0x6E, 0x81, 0x20, 0x90,
0x3C, 0x00, 0x00, 0x90, 0x43, 0x00, 0x20, 0x90, 0x3C, 0x6E, 0x00, 0x90, 0x41, 0x6E, 0x81, 0x20,
0x90, 0x3C, 0x00, 0x00, 0x90, 0x41, 0x00, 0x20, 0x90, 0x3C, 0x6E, 0x00, 0x90, 0x40, 0x6E, 0x81,
0x20, 0x90, 0x3C, 0x00, 0x00, 0x90, 0x40, 0x00, 0x20, 0xB0, 0x40, 0x00, 0x00, 0xB0, 0x40, 0x7F,
0x00, 0x90, 0x39, 0x6E, 0x00, 0x90, 0x3C, 0x6E, 0x00, 0x90, 0x41, 0x6E, 0x81, 0x20, 0x90, 0x39,
0x00, 0x00, 0x90, 0x3C, 0x00, 0x00, 0x90, 0x41, 0x00, 0x20, 0x90, 0x39, 0x6E, 0x00, 0x90, 0x3C,
0x6E, 0x00, 0x90, 0x43, 0x6E, 0x81, 0x20, 0x90, 0x39, 0x00, 0x00, 0x90, 0x3C, 0x00, 0x00, 0x90,
0x43, 0x00, 0x20, 0x90, 0x39, 0x6E, 0x00, 0x90, 0x3C, 0x6E, 0x00, 0x90, 0x45, 0x6E, 0x81, 0x20,
0x90, 0x39, 0x00, 0x00, 0x90, 0x3C, 0x00, 0x00, 0x90, 0x45, 0x00, 0x20, 0xB0, 0x40, 0x00, 0x00,
0xB0, 0x40, 0x7F, 0x00, 0x90, 0x3C, 0x6E, 0x00, 0x90, 0x40, 0x6E, 0x00, 0x90, 0x43, 0x6E, 0x81,
0x20, 0x90, 0x3C, 0x00, 0x00, 0x90, 0x40, 0x00, 0x00, 0x90, 0x43, 0x00, 0x81, 0x60, 0x90, 0x41,
0x6E, 0x5E, 0x90, 0x41, 0x00, 0x02, 0x90, 0x43, 0x6E, 0x5E, 0x90, 0x43, 0x00, 0x02, 0xB0, 0x40,
0x00, 0x00, 0xB0, 0x40, 0x7F, 0x00, 0x90, 0x3C, 0x6E, 0x00, 0x90, 0x41, 0x6E, 0x00, 0x90, 0x45,
0x6E, 0x81, 0x20, 0x90, 0x3C, 0x00, 0x00, 0x90, 0x41, 0x00, 0x00, 0x90, 0x45, 0x00, 0x81, 0x60,
0x90, 0x43, 0x6E, 0x5E, 0x90, 0x43, 0x00, 0x02, 0x90, 0x41, 0x6E, 0x5E, 0x90, 0x41, 0x00, 0x02,
0xB0, 0x40, 0x00, 0x00, 0xB0, 0x40, 0x7F, 0x00, 0x90, 0x3D, 0x6E, 0x00, 0x90, 0x40, 0x6E, 0x81,
0x20, 0x90, 0x3D, 0x00, 0x00, 0x90, 0x40, 0x00, 0x20, 0x90, 0x3D, 0x6E, 0x00, 0x90, 0x41, 0x6E,
0x81, 0x20, 0x90, 0x3D, 0x00, 0x00, 0x90, 0x41, 0x00, 0x20, 0x90, 0x3D, 0x6E, 0x00, 0x90, 0x40,
0x6E, 0x81, 0x20, 0x90, 0x3D, 0x00, 0x00, 0x90, 0x40, 0x00, 0x20, 0xB0, 0x40, 0x00, 0x00, 0xB0,
0x40, 0x7F, 0x00, 0x90, 0x35, 0x6E, 0x00, 0x90, 0x39, 0x6E, 0x00, 0x90, 0x3E, 0x6E, 0x81, 0x20,
0x90, 0x35, 0x00, 0x00, 0x90, 0x39, 0x00, 0x00, 0x90, 0x3E, 0x00, 0x81, 0x60, 0x90, 0x40, 0x6E,
0x5E, 0x90, 0x40, 0x00, 0x02, 0x90, 0x3C, 0x6E, 0x5E, 0x90, 0x3C, 0x00, 0x02, 0xB0, 0x40, 0x00,
0x00, 0xB0, 0x40, 0x7F, 0x00, 0x90, 0x35, 0x6E, 0x00, 0x90, 0x39, 0x6E, 0x00, 0x90, 0x3E, 0x6E,
0x5E, 0x90, 0x35, 0x00, 0x00, 0x90, 0x39, 0x00, 0x00, 0x90, 0x3E, 0x00, 0x82, 0x22, 0x90, 0x4A,
0x6E, 0x5E, 0x90, 0x4A, 0x00, 0x02, 0x90, 0x4C, 0x6E, 0x5E, 0x90, 0x4C, 0x00, 0x02, 0xB0, 0x40,
0x00, 0x00, 0xB0, 0x40, 0x7F, 0x00, 0x90, 0x45, 0x6E, 0x00, 0x90, 0x4A, 0x6E, 0x00, 0x90, 0x4D,
0x6E, 0x81, 0x20, 0x90, 0x45, 0x00, 0x00, 0x90, 0x4A, 0x00, 0x00, 0x90, 0x4D, 0x00, 0x81, 0x60,
0x90, 0x4C, 0x6E, 0x5E, 0x90, 0x4C, 0x00, 0x02, 0x90, 0x4D, 0x6E, 0x5E, 0x90, 0x4D, 0x00, 0x02,
0xB0, 0x40, 0x00, 0x00, 0xB0, 0x40, 0x7F, 0x00, 0x90, 0x48, 0x6E, 0x00, 0x90, 0x4F, 0x6E, 0x81,
0x20, 0x90, 0x48, 0x00, 0x00, 0x90, 0x4F, 0x00, 0x20, 0x90, 0x48, 0x6E, 0x00, 0x90, 0x4D, 0x6E,
0x81, 0x20, 0x90, 0x48, 0x00, 0x00, 0x90, 0x4D, 0x00, 0x20, 0x90, 0x48, 0x6E, 0x00, 0x90, 0x4F,
0x6E, 0x81, 0x20, 0x90, 0x48, 0x00, 0x00, 0x90, 0x4F, 0x00, 0x20, 0xB0, 0x40, 0x00, 0x00, 0xB0,
0x40, 0x7F, 0x00, 0x90, 0x4D, 0x6E, 0x00, 0x90, 0x51, 0x6E, 0x81, 0x20, 0x90, 0x4D, 0x00, 0x00,
0x90, 0x51, 0x00, 0x20, 0x90, 0x48, 0x6E, 0x00, 0x90, 0x4F, 0x6E, 0x81, 0x20, 0x90, 0x48, 0x00,
0x00, 0x90, 0x4F, 0x00, 0x20, 0x90, 0x48, 0x6E, 0x00, 0x90, 0x4D, 0x6E, 0x81, 0x20, 0x90, 0x48,
0x00, 0x00, 0x90, 0x4D, 0x00, 0x20, 0xB0, 0x40, 0x00, 0x00, 0xB0, 0x40, 0x7F, 0x00, 0x90, 0x41,
0x6E, 0x00, 0x90, 0x46, 0x6E, 0x00, 0x90, 0x4A, 0x6E, 0x81, 0x20, 0x90, 0x41, 0x00, 0x00, 0x90,
0x46, 0x00, 0x00, 0x90, 0x4A, 0x00, 0x81, 0x60, 0x90, 0x4A, 0x6E, 0x5E, 0x90, 0x4A, 0x00, 0x02,
0x90, 0x4C, 0x6E, 0x5E, 0x90, 0x4C, 0x00, 0x02, 0xB0, 0x40, 0x00, 0x00, 0xB0, 0x40, 0x7F, 0x00,
0x90, 0x45, 0x6E, 0x00, 0x90, 0x4A, 0x6E, 0x00, 0x90, 0x4D, 0x6E, 0x81, 0x20, 0x90, 0x45, 0x00,
0x00, 0x90, 0x4A, 0x00, 0x00, 0x90, 0x4D, 0x00, 0x20, 0x90, 0x45, 0x6E, 0x00, 0x90, 0x4A, 0x6E,
0x00, 0x90, 0x4F, 0x6E, 0x81, 0x20, 0x90, 0x45, 0x00, 0x00, 0x90, 0x4A, 0x00, 0x00, 0x90, 0x4F,
0x00, 0x20, 0x90, 0x4A, 0x6E, 0x00, 0x90, 0x51, 0x6E, 0x81, 0x20, 0x90, 0x4A, 0x00, 0x00, 0x90,
0x51, 0x00, 0x20, 0xB0, 0x40, 0x00, 0x00, 0xB0, 0x40, 0x7F, 0x00, 0x90, 0x46, 0x6E, 0x00, 0x90,
0x4A, 0x6E, 0x00, 0x90, 0x52, 0x6E, 0x81, 0x20, 0x90, 0x46, 0x00, 0x00, 0x90, 0x4A, 0x00, 0x00,
0x90, 0x52, 0x00, 0x20, 0x90, 0x46, 0x6E, 0x00, 0x90, 0x4A, 0x6E, 0x81, 0x20, 0x90, 0x46, 0x00,
0x00, 0x90, 0x4A, 0x00, 0x20, 0x90, 0x46, 0x6E, 0x00, 0x90, 0x4F, 0x6E, 0x81, 0x20, 0x90, 0x46,
0x00, 0x00, 0x90, 0x4F, 0x00, 0x20, 0xB0, 0x40, 0x00, 0x00, 0xB0, 0x40, 0x7F, 0x00, 0x90, 0x45,
0x6E, 0x00, 0x90, 0x4D, 0x6E, 0x81, 0x20, 0x90, 0x45, 0x00, 0x00, 0x90, 0x4D, 0x00, 0x81, 0x60,
0x90, 0x4F, 0x6E, 0x5E, 0x90, 0x4F, 0x00, 0x02, 0x90, 0x4C, 0x6E, 0x5E, 0x90, 0x4C, 0x00, 0x02,
0xB0, 0x40, 0x00, 0x00, 0xB0, 0x40, 0x7F, 0x00, 0x90, 0x45, 0x6E, 0x00, 0x90, 0x4A, 0x6E, 0x81,
0x20, 0x90, 0x45, 0x00, 0x00, 0x90, 0x4A, 0x00, 0x81, 0x60, 0x90, 0x4C, 0x6E, 0x5E, 0x90, 0x4C,
0x00, 0x02, 0x90, 0x49, 0x6E, 0x5E, 0x90, 0x49, 0x00, 0x02, 0xB0, 0x40, 0x00, 0x00, 0xB0, 0x40,
0x7F, 0x00, 0x90, 0x4A, 0x6E, 0x00, 0x90, 0x4D, 0x6E, 0x00, 0x90, 0x51, 0x6E, 0x81, 0x20, 0x90,
0x4A, 0x00, 0x00, 0x90, 0x4D, 0x00, 0x00, 0x90, 0x51, 0x00, 0x83, 0x20, 0xB0, 0x40, 0x00, 0x00,
0xB0, 0x40, 0x7F, 0x00, 0x90, 0x4A, 0x6E, 0x00, 0x90, 0x4F, 0x6E, 0x00, 0x90, 0x52, 0x6E, 0x81,
0x20, 0x90, 0x4A, 0x00, 0x00, 0x90, 0x4F, 0x00, 0x00, 0x90, 0x52, 0x00, 0x83, 0x20, 0xB0, 0x40,
0x00, 0x00, 0xB0, 0x40, 0x7F, 0x00, 0x90, 0x48, 0x6E, 0x00, 0x90, 0x4D, 0x6E, 0x00, 0x90, 0x51,
0x6E, 0x81, 0x20, 0x90, 0x48, 0x00, 0x00, 0x90, 0x4D, 0x00, 0x00, 0x90, 0x51, 0x00, 0x20, 0x90,
0x48, 0x6E, 0x00, 0x90, 0x4D, 0x6E, 0x00, 0x90, 0x51, 0x6E, 0x81, 0x20, 0x90, 0x48, 0x00, 0x00,
0x90, 0x4D, 0x00, 0x00, 0x90, 0x51, 0x00, 0x20, 0x90, 0x48, 0x6E, 0x00, 0x90, 0x4D, 0x6E, 0x00,
0x90, 0x51, 0x6E, 0x81, 0x20, 0x90, 0x48, 0x00, 0x00, 0x90, 0x4D, 0x00, 0x00, 0x90, 0x51, 0x00,
0x20, 0x90, 0x48, 0x6E, 0x00, 0x90, 0x4C, 0x6E, 0x00, 0x90, 0x51, 0x6E, 0x5E, 0x90, 0x48, 0x00,
0x00, 0x90, 0x4C, 0x00, 0x00, 0x90, 0x51, 0x00, 0x02, 0xB0, 0x40, 0x00, 0x00, 0xB0, 0x40, 0x7F,
0x00, 0x90, 0x4F, 0x6E, 0x5E, 0x90, 0x4F, 0x00, 0x83, 0x02, 0xB0, 0x40, 0x00, 0x00, 0xB0, 0x40,
0x7F, 0x00, 0x90, 0x46, 0x6E, 0x00, 0x90, 0x4A, 0x6E, 0x00, 0x90, 0x4F, 0x6E, 0x81, 0x20, 0x90,
0x46, 0x00, 0x00, 0x90, 0x4A, 0x00, 0x00, 0x90, 0x4F, 0x00, 0x83, 0x20, 0xB0, 0x40, 0x00, 0x00,
0xB0, 0x40, 0x7F, 0x00, 0x90, 0x45, 0x6E, 0x00, 0x90, 0x4A, 0x6E, 0x00, 0x90, 0x4D, 0x6E, 0x81,
0x20, 0x90, 0x45, 0x00, 0x00, 0x90, 0x4A, 0x00, 0x00, 0x90, 0x4D, 0x00, 0x83, 0x20, 0xB0, 0x40,
0x00, 0x00, 0xB0, 0x40, 0x7F, 0x00, 0x90, 0x45, 0x6E, 0x00, 0x90, 0x4D, 0x6E, 0x81, 0x20, 0x90,
0x45, 0x00, 0x00, 0x90, 0x4D, 0x00, 0x20, 0x90, 0x45, 0x6E, 0x00, 0x90, 0x4F, 0x6E, 0x81, 0x20,
0x90, 0x45, 0x00, 0x00, 0x90, 0x4F, 0x00, 0x20, 0x90, 0x45, 0x6E, 0x00, 0x90, 0x4C, 0x6E, 0x81,
0x20, 0x90, 0x45, 0x00, 0x00, 0x90, 0x4C, 0x00, 0x20, 0xB0, 0x40, 0x00, 0x00, 0xB0, 0x40, 0x7F,
0x00, 0x90, 0x41, 0x6E, 0x00, 0x90, 0x45, 0x6E, 0x00, 0x90, 0x4A, 0x6E, 0x82, 0x00, 0x90, 0x41,
0x00, 0x00, 0x90, 0x45, 0x00, 0x00, 0x90, 0x4A, 0x00, 0x20, 0x90, 0x4A, 0x6E, 0x5E, 0x90, 0x4A,
0x00, 0x02, 0x90, 0x4C, 0x6E, 0x5E, 0x90, 0x4C, 0x00, 0x02, 0x90, 0x4D, 0x6E, 0x5E, 0x90, 0x4D,
0x00, 0x02, 0xB0, 0x40, 0x00, 0x00, 0xB0, 0x40, 0x7F, 0x00, 0x90, 0x4A, 0x6E, 0x00, 0x90, 0x4D,
0x6E, 0x00, 0x90, 0x51, 0x6E, 0x82, 0x00, 0x90, 0x4A, 0x00, 0x00, 0x90, 0x4D, 0x00, 0x00, 0x90,
0x51, 0x00, 0x20, 0x90, 0x4A, 0x6E, 0x5E, 0x90, 0x4A, 0x00, 0x02, 0x90, 0x4C, 0x6E, 0x5E, 0x90,
0x4C, 0x00, 0x02, 0x90, 0x4D, 0x6E, 0x5E, 0x90, 0x4D, 0x00, 0x02, 0xB0, 0x40, 0x00, 0x00, 0xB0,
0x40, 0x7F, 0x00, 0x90, 0x4A, 0x6E, 0x00, 0x90, 0x4D, 0x6E, 0x00, 0x90, 0x52, 0x6E, 0x82, 0x00,
0x90, 0x4A, 0x00, 0x00, 0x90, 0x4D, 0x00, 0x00, 0x90, 0x52, 0x00, 0x20, 0x90, 0x4A, 0x6E, 0x5E,
0x90, 0x4A, 0x00, 0x02, 0x90, 0x4C, 0x6E, 0x5E, 0x90, 0x4C, 0x00, 0x02, 0x90, 0x4D, 0x6E, 0x5E,
0x90, 0x4D, 0x00, 0x02, 0xB0, 0x40, 0x00, 0x00, 0xB0, 0x40, 0x7F, 0x00, 0x90, 0x48, 0x6E, 0x00,
0x90, 0x4D, 0x6E, 0x00, 0x90, 0x51, 0x6E, 0x81, 0x20, 0x90, 0x48, 0x00, 0x00, 0x90, 0x4D, 0x00,
0x00, 0x90, 0x51, 0x00, 0x20, 0x90, 0x48, 0x6E, 0x00, 0x90, 0x4D, 0x6E, 0x00, 0x90, 0x51, 0x6E,
0x81, 0x20, 0x90, 0x48, 0x00, 0x00, 0x90, 0x4D, 0x00, 0x00, 0x90, 0x51, 0x00, 0x20, 0x90, 0x4D,
0x6E, 0x00, 0x90, 0x54, 0x6E, 0x81, 0x20, 0x90, 0x4D, 0x00, 0x00, 0x90, 0x54, 0x00, 0x20, 0xB0,
0x40, 0x00, 0x00, 0xB0, 0x40, 0x7F, 0x00, 0x90, 0x48, 0x6E, 0x00, 0x90, 0x4C, 0x6E, 0x00, 0x90,
0x51, 0x6E, 0x5E, 0x90, 0x48, 0x00, 0x00, 0x90, 0x4C, 0x00, 0x00, 0x90, 0x51, 0x00, 0x02, 0x90,
0x4F, 0x6E, 0x5E, 0x90, 0x4F, 0x00, 0x83, 0x02, 0xB0, 0x40, 0x00, 0x00, 0xB0, 0x40, 0x7F, 0x00,
0x90, 0x46, 0x6E, 0x00, 0x90, 0x4A, 0x6E, 0x00, 0x90, 0x4F, 0x6E, 0x81, 0x20, 0x90, 0x46, 0x00,
0x00, 0x90, 0x4A, 0x00, 0x00, 0x90, 0x4F, 0x00, 0x83, 0x20, 0xB0, 0x40, 0x00, 0x00, 0xB0, 0x40,
0x7F, 0x00, 0x90, 0x45, 0x6E, 0x00, 0x90, 0x4A, 0x6E, 0x00, 0x90, 0x4D, 0x6E, 0x81, 0x20, 0x90,
0x45, 0x00, 0x00, 0x90, 0x4A, 0x00, 0x00, 0x90, 0x4D, 0x00, 0x83, 0x20, 0xB0, 0x40, 0x00, 0x00,
0xB0, 0x40, 0x7F, 0x00, 0x90, 0x45, 0x6E, 0x00, 0x90, 0x4D, 0x6E, 0x81, 0x20, 0x90, 0x45, 0x00,
0x00, 0x90, 0x4D, 0x00, 0x20, 0x90, 0x45, 0x6E, 0x00, 0x90, 0x4F, 0x6E, 0x81, 0x20, 0x90, 0x45,
0x00, 0x00, 0x90, 0x4F, 0x00, 0x20, 0x90, 0x45, 0x6E, 0x00, 0x90, 0x4C, 0x6E, 0x81, 0x20, 0x90,
0x45, 0x00, 0x00, 0x90, 0x4C, 0x00, 0x20, 0xB0, 0x40, 0x00, 0x00, 0xB0, 0x40, 0x7F, 0x00, 0x90,
0x41, 0x6E, 0x00, 0x90, 0x45, 0x6E, 0x00, 0x90, 0x4A, 0x6E, 0x82, 0x00, 0x90, 0x41, 0x00, 0x00,
0x90, 0x45, 0x00, 0x00, 0x90, 0x4A, 0x00, 0x82, 0x40, 0x90, 0x3E, 0x6E, 0x85, 0x50, 0x90, 0x3E,
0x00, 0x00, 0xFF, 0x2F, 0x00, 0x4D, 0x54, 0x72, 0x6B, 0x00, 0x00, 0x18, 0xE1, 0x00, 0xFF, 0x21,
0x01, 0x00, 0x00, 0xFF, 0x03, 0x09, 0x4C, 0x65, 0x66, 0x74, 0x20, 0x48, 0x61, 0x6E, 0x64, 0x00,
0xC1, 0x00, 0x00, 0xB1, 0x07, 0x7F, 0x00, 0xB1, 0x0A, 0x40, 0x00, 0xC1, 0x00, 0x00, 0xB1, 0x07,
0x7F, 0x00, 0xB1, 0x0A, 0x40, 0x92, 0x00, 0xB1, 0x40, 0x00, 0x00, 0xB1, 0x40, 0x7F, 0x00, 0x91,
0x1A, 0x6E, 0x00, 0x91, 0x26, 0x6E, 0x84, 0x10, 0x91, 0x1A, 0x00, 0x00, 0x91, 0x26, 0x00, 0x30,
0x91, 0x1A, 0x6E, 0x00, 0x91, 0x26, 0x6E, 0x82, 0x00, 0x91, 0x1A, 0x00, 0x00, 0x91, 0x26, 0x00,
0x20, 0x91, 0x1A, 0x6E, 0x00, 0x91, 0x26, 0x6E, 0x82, 0x00, 0x91, 0x1A, 0x00, 0x00, 0x91, 0x26,
0x00, 0x20, 0xB1, 0x40, 0x00, 0x00, 0xB1, 0x40, 0x7F, 0x00, 0x91, 0x26, 0x6E, 0x00, 0x91, 0x32,
0x6E, 0x81, 0x20, 0x91, 0x26, 0x00, 0x00, 0x91, 0x32, 0x00, 0x20, 0x91, 0x26, 0x6E, 0x00, 0x91,
0x32, 0x6E, 0x5E, 0x91, 0x26, 0x00, 0x00, 0x91, 0x32, 0x00, 0x02, 0x91, 0x26, 0x6E, 0x00, 0x91,
0x32, 0x6E, 0x81, 0x20, 0x91, 0x26, 0x00, 0x00, 0x91, 0x32, 0x00, 0x20, 0x91, 0x24, 0x6E, 0x00,
0x91, 0x30, 0x6E, 0x5E, 0x91, 0x24, 0x00, 0x00, 0x91, 0x30, 0x00, 0x02, 0xB1, 0x40, 0x00, 0x00,
0xB1, 0x40, 0x7F, 0x00, 0x91, 0x22, 0x6E, 0x00, 0x91, 0x2E, 0x6E, 0x81, 0x20, 0x91, 0x22, 0x00,
0x00, 0x91, 0x2E, 0x00, 0x20, 0x91, 0x22, 0x6E, 0x00, 0x91, 0x2E, 0x6E, 0x5E, 0x91, 0x22, 0x00,
0x00, 0x91, 0x2E, 0x00, 0x02, 0x91, 0x22, 0x6E, 0x00, 0x91, 0x2E, 0x6E, 0x81, 0x20, 0x91, 0x22,
0x00, 0x00, 0x91, 0x2E, 0x00, 0x20, 0x91, 0x22, 0x6E, 0x00, 0x91, 0x2E, 0x6E, 0x5E, 0x91, 0x22,
0x00, 0x00, 0x91, 0x2E, 0x00, 0x02, 0xB1, 0x40, 0x00, 0x00, 0xB1, 0x40, 0x7F, 0x00, 0x91, 0x21,
0x6E, 0x00, 0x91, 0x2D, 0x6E, 0x81, 0x20, 0x91, 0x21, 0x00, 0x00, 0x91, 0x2D, 0x00, 0x20, 0x91,
0x21, 0x6E, 0x00, 0x91, 0x2D, 0x6E, 0x5E, 0x91, 0x21, 0x00, 0x00, 0x91, 0x2D, 0x00, 0x02, 0x91,
0x21, 0x6E, 0x00, 0x91, 0x2D, 0x6E, 0x81, 0x20, 0x91, 0x21, 0x00, 0x00, 0x91, 0x2D, 0x00, 0x20,
0x91, 0x21, 0x6E, 0x00, 0x91, 0x2D, 0x6E, 0x5E, 0x91, 0x21, 0x00, 0x00, 0x91, 0x2D, 0x00, 0x02,
0xB1, 0x40, 0x00, 0x00, 0xB1, 0x40, 0x7F, 0x00, 0x91, 0x26, 0x6E, 0x00, 0x91, 0x32, 0x6E, 0x81,
0x20, 0x91, 0x26, 0x00, 0x00, 0x91, 0x32, 0x00, 0x20, 0x91, 0x26, 0x6E, 0x00, 0x91, 0x32, 0x6E,
0x5E, 0x91, 0x26, 0x00, 0x00, 0x91, 0x32, 0x00, 0x02, 0x91, 0x26, 0x6E, 0x00, 0x91, 0x32, 0x6E,
0x81, 0x20, 0x91, 0x26, 0x00, 0x00, 0x91, 0x32, 0x00, 0x20, 0x91, 0x26, 0x6E, 0x00, 0x91, 0x32,
0x6E, 0x5E, 0x91, 0x26, 0x00, 0x00, 0x91, 0x32, 0x00, 0x02, 0xB1, 0x40, 0x00, 0x00, 0xB1, 0x40,
0x7F, 0x00, 0x91, 0x22, 0x6E, 0x00, 0x91, 0x2E, 0x6E, 0x81, 0x20, 0x91, 0x22, 0x00, 0x00, 0x91,
0x2E, 0x00, 0x20, 0x91, 0x22, 0x6E, 0x00, 0x91, 0x2E, 0x6E, 0x5E, 0x91, 0x22, 0x00, 0x00, 0x91,
0x2E, 0x00, 0x02, 0x91, 0x22, 0x6E, 0x00, 0x91, 0x2E, 0x6E, 0x81, 0x20, 0x91, 0x22, 0x00, 0x00,
0x91, 0x2E, 0x00, 0x20, 0x91, 0x22, 0x6E, 0x00, 0x91, 0x2E, 0x6E, 0x5E, 0x91, 0x22, 0x00, 0x00,
0x91, 0x2E, 0x00, 0x02, 0xB1, 0x40, 0x00, 0x00, 0xB1, 0x40, 0x7F, 0x00, 0x91, 0x1D, 0x6E, 0x00,
0x91, 0x29, 0x6E, 0x81, 0x20, 0x91, 0x1D, 0x00, 0x00, 0x91, 0x29, 0x00, 0x20, 0x91, 0x1D, 0x6E,
0x00, 0x91, 0x29, 0x6E, 0x5E, 0x91, 0x1D, 0x00, 0x00, 0x91, 0x29, 0x00, 0x02, 0x91, 0x1D, 0x6E,
0x00, 0x91, 0x29, 0x6E, 0x81, 0x20, 0x91, 0x1D, 0x00, 0x00, 0x91, 0x29, 0x00, 0x20, 0x91, 0x1D,
0x6E, 0x00, 0x91, 0x29, 0x6E, 0x5E, 0x91, 0x1D, 0x00, 0x00, 0x91, 0x29, 0x00, 0x02, 0xB1, 0x40,
0x00, 0x00, 0xB1, 0x40, 0x7F, 0x00, 0x91, 0x24, 0x6E, 0x00, 0x91, 0x30, 0x6E, 0x81, 0x20, 0x91,
0x24, 0x00, 0x00, 0x91, 0x30, 0x00, 0x20, 0x91, 0x24, 0x6E, 0x00, 0x91, 0x30, 0x6E, 0x5E, 0x91,
0x24, 0x00, 0x00, 0x91, 0x30, 0x00, 0x02, 0x91, 0x21, 0x6E, 0x00, 0x91, 0x2D, 0x6E, 0x81, 0x20,
0x91, 0x21, 0x00, 0x00, 0x91, 0x2D, 0x00, 0x20, 0x91, 0x21, 0x6E, 0x00, 0x91, 0x2D, 0x6E, 0x5E,
0x91, 0x21, 0x00, 0x00, 0x91, 0x2D, 0x00, 0x02, 0xB1, 0x40, 0x00, 0x00, 0xB1, 0x40, 0x7F, 0x00,
0x91, 0x26, 0x6E, 0x00, 0x91, 0x32, 0x6E, 0x81, 0x20, 0x91, 0x26, 0x00, 0x00, 0x91, 0x32, 0x00,
0x20, 0x91, 0x26, 0x6E, 0x00, 0x91, 0x32, 0x6E, 0x5E, 0x91, 0x26, 0x00, 0x00, 0x91, 0x32, 0x00,
0x02, 0x91, 0x26, 0x6E, 0x00, 0x91, 0x32, 0x6E, 0x81, 0x20, 0x91, 0x26, 0x00, 0x00, 0x91, 0x32,
0x00, 0x20, 0x91, 0x26, 0x6E, 0x00, 0x91, 0x32, 0x6E, 0x5E, 0x91, 0x26, 0x00, 0x00, 0x91, 0x32,
0x00, 0x02, 0xB1, 0x40, 0x00, 0x00, 0xB1, 0x40, 0x7F, 0x00, 0x91, 0x26, 0x6E, 0x00, 0x91, 0x32,
0x6E, 0x81, 0x20, 0x91, 0x26, 0x00, 0x00, 0x91, 0x32, 0x00, 0x20, 0x91, 0x26, 0x6E, 0x00, 0x91,
0x32, 0x6E, 0x5E, 0x91, 0x26, 0x00, 0x00, 0x91, 0x32, 0x00, 0x02, 0x91, 0x26, 0x6E, 0x00, 0x91,
0x32, 0x6E, 0x81, 0x20, 0x91, 0x26, 0x00, 0x00, 0x91, 0x32, 0x00, 0x20, 0x91, 0x26, 0x6E, 0x00,
0x91, 0x32, 0x6E, 0x5E, 0x91, 0x26, 0x00, 0x00, 0x91, 0x32, 0x00, 0x02, 0xB1, 0x40, 0x00, 0x00,
0xB1, 0x40, 0x7F, 0x00, 0x91, 0x22, 0x6E, 0x00, 0x91, 0x2E, 0x6E, 0x81, 0x20, 0x91, 0x22, 0x00,
0x00, 0x91, 0x2E, 0x00, 0x20, 0x91, 0x22, 0x6E, 0x00, 0x91, 0x2E, 0x6E, 0x5E, 0x91, 0x22, 0x00,
0x00, 0x91, 0x2E, 0x00, 0x02, 0x91, 0x22, 0x6E, 0x00, 0x91, 0x2E, 0x6E, 0x81, 0x20, 0x91, 0x22,
0x00, 0x00, 0x91, 0x2E, 0x00, 0x20, 0x91, 0x22, 0x6E, 0x00, 0x91, 0x2E, 0x6E, 0x5E, 0x91, 0x22,
0x00, 0x00, 0x91, 0x2E, 0x00, 0x02, 0xB1, 0x40, 0x00, 0x00, 0xB1, 0x40, 0x7F, 0x00, 0x91, 0x1F,
0x6E, 0x00, 0x91, 0x2B, 0x6E, 0x81, 0x20, 0x91, 0x1F, 0x00, 0x00, 0x91, 0x2B, 0x00, 0x20, 0x91,
0x1F, 0x6E, 0x00, 0x91, 0x2B, 0x6E, 0x5E, 0x91, 0x1F, 0x00, 0x00, 0x91, 0x2B, 0x00, 0x02, 0x91,
0x1F, 0x6E, 0x00, 0x91, 0x2B, 0x6E, 0x81, 0x20, 0x91, 0x1F, 0x00, 0x00, 0x91, 0x2B, 0x00, 0x20,
0x91, 0x1F, 0x6E, 0x00, 0x91, 0x2B, 0x6E, 0x5E, 0x91, 0x1F, 0x00, 0x00, 0x91, 0x2B, 0x00, 0x02,
0xB1, 0x40, 0x00, 0x00, 0xB1, 0x40, 0x7F, 0x00, 0x91, 0x26, 0x6E, 0x00, 0x91, 0x32, 0x6E, 0x81,
0x20, 0x91, 0x26, 0x00, 0x00, 0x91, 0x32, 0x00, 0x20, 0x91, 0x26, 0x6E, 0x00, 0x91, 0x32, 0x6E,
0x5E, 0x91, 0x26, 0x00, 0x00, 0x91, 0x32, 0x00, 0x02, 0x91, 0x26, 0x6E, 0x00, 0x91, 0x32, 0x6E,
0x81, 0x20, 0x91, 0x26, 0x00, 0x00, 0x91, 0x32, 0x00, 0x20, 0x91, 0x26, 0x6E, 0x00, 0x91, 0x32,
0x6E, 0x5E, 0x91, 0x26, 0x00, 0x00, 0x91, 0x32, 0x00, 0x02, 0xB1, 0x40, 0x00, 0x00, 0xB1, 0x40,
0x7F, 0x00, 0x91, 0x22, 0x6E, 0x00, 0x91, 0x2E, 0x6E, 0x81, 0x20, 0x91, 0x22, 0x00, 0x00, 0x91,
0x2E, 0x00, 0x20, 0x91, 0x22, 0x6E, 0x00, 0x91, 0x2E, 0x6E, 0x5E, 0x91, 0x22, 0x00, 0x00, 0x91,
0x2E, 0x00, 0x02, 0x91, 0x22, 0x6E, 0x00, 0x91, 0x2E, 0x6E, 0x81, 0x20, 0x91, 0x22, 0x00, 0x00,
0x91, 0x2E, 0x00, 0x20, 0x91, 0x22, 0x6E, 0x00, 0x91, 0x2E, 0x6E, 0x5E, 0x91, 0x22, 0x00, 0x00,
0x91, 0x2E, 0x00, 0x02, 0xB1, 0x40, 0x00, 0x00, 0xB1, 0x40, 0x7F, 0x00, 0x91, 0x26, 0x6E, 0x00,
0x91, 0x32, 0x6E, 0x81, 0x20, 0x91, 0x26, 0x00, 0x00, 0x91, 0x32, 0x00, 0x20, 0x91, 0x26, 0x6E,
0x00, 0x91, 0x32, 0x6E, 0x5E, 0x91, 0x26, 0x00, 0x00, 0x91, 0x32, 0x00, 0x02, 0x91, 0x26, 0x6E,
0x00, 0x91, 0x32, 0x6E, 0x81, 0x20, 0x91, 0x26, 0x00, 0x00, 0x91, 0x32, 0x00, 0x20, 0x91, 0x26,
0x6E, 0x00, 0x91, 0x32, 0x6E, 0x5E, 0x91, 0x26, 0x00, 0x00, 0x91, 0x32, 0x00, 0x02, 0xB1, 0x40,
0x00, 0x00, 0xB1, 0x40, 0x7F, 0x00, 0x91, 0x21, 0x6E, 0x00, 0x91, 0x2D, 0x6E, 0x81, 0x20, 0x91,
0x21, 0x00, 0x00, 0x91, 0x2D, 0x00, 0x20, 0x91, 0x21, 0x6E, 0x00, 0x91, 0x2D, 0x6E, 0x5E, 0x91,
0x21, 0x00, 0x00, 0x91, 0x2D, 0x00, 0x02, 0x91, 0x21, 0x6E, 0x00, 0x91, 0x2D, 0x6E, 0x81, 0x20,
0x91, 0x21, 0x00, 0x00, 0x91, 0x2D, 0x00, 0x20, 0x91, 0x21, 0x6E, 0x00, 0x91, 0x2D, 0x6E, 0x5E,
0x91, 0x21, 0x00, 0x00, 0x91, 0x2D, 0x00, 0x02, 0x91, 0x21, 0x6E, 0x00, 0x91, 0x2D, 0x6E, 0x81,
0x20, 0x91, 0x21, 0x00, 0x00, 0x91, 0x2D, 0x00, 0x20, 0x91, 0x21, 0x6E, 0x00, 0x91, 0x2D, 0x6E,
0x5E, 0x91, 0x21, 0x00, 0x00, 0x91, 0x2D, 0x00, 0x02, 0x91, 0x21, 0x6E, 0x00, 0x91, 0x2D, 0x6E,
0x81, 0x20, 0x91, 0x21, 0x00, 0x00, 0x91, 0x2D, 0x00, 0x20, 0x91, 0x21, 0x6E, 0x00, 0x91, 0x2D,
0x6E, 0x5E, 0x91, 0x21, 0x00, 0x00, 0x91, 0x2D, 0x00, 0x02, 0xB1, 0x40, 0x00, 0x00, 0xB1, 0x40,
0x7F, 0x00, 0x91, 0x26, 0x6E, 0x00, 0x91, 0x32, 0x6E, 0x81, 0x20, 0x91, 0x26, 0x00, 0x00, 0x91,
0x32, 0x00, 0x20, 0x91, 0x26, 0x6E, 0x00, 0x91, 0x32, 0x6E, 0x5E, 0x91, 0x26, 0x00, 0x00, 0x91,
0x32, 0x00, 0x02, 0x91, 0x26, 0x6E, 0x00, 0x91, 0x32, 0x6E, 0x81, 0x20, 0x91, 0x26, 0x00, 0x00,
0x91, 0x32, 0x00, 0x20, 0x91, 0x24, 0x6E, 0x00, 0x91, 0x30, 0x6E, 0x5E, 0x91, 0x24, 0x00, 0x00,
0x91, 0x30, 0x00, 0x02, 0xB1, 0x40, 0x00, 0x00, 0xB1, 0x40, 0x7F, 0x00, 0x91, 0x22, 0x6E, 0x00,
0x91, 0x2E, 0x6E, 0x81, 0x20, 0x91, 0x22, 0x00, 0x00, 0x91, 0x2E, 0x00, 0x20, 0x91, 0x22, 0x6E,
0x00, 0x91, 0x2E, 0x6E, 0x5E, 0x91, 0x22, 0x00, 0x00, 0x91, 0x2E, 0x00, 0x02, 0x91, 0x22, 0x6E,
0x00, 0x91, 0x2E, 0x6E, 0x81, 0x20, 0x91, 0x22, 0x00, 0x00, 0x91, 0x2E, 0x00, 0x20, 0x91, 0x22,
0x6E, 0x00, 0x91, 0x2E, 0x6E, 0x5E, 0x91, 0x22, 0x00, 0x00, 0x91, 0x2E, 0x00, 0x02, 0xB1, 0x40,
0x00, 0x00, 0xB1, 0x40, 0x7F, 0x00, 0x91, 0x21, 0x6E, 0x00, 0x91, 0x2D, 0x6E, 0x81, 0x20, 0x91,
0x21, 0x00, 0x00, 0x91, 0x2D, 0x00, 0x20, 0x91, 0x21, 0x6E, 0x00, 0x91, 0x2D, 0x6E, 0x5E, 0x91,
0x21, 0x00, 0x00, 0x91, 0x2D, 0x00, 0x02, 0x91, 0x21, 0x6E, 0x00, 0x91, 0x2D, 0x6E, 0x81, 0x20,
0x91, 0x21, 0x00, 0x00, 0x91, 0x2D, 0x00, 0x20, 0x91, 0x21, 0x6E, 0x00, 0x91, 0x2D, 0x6E, 0x5E,
0x91, 0x21, 0x00, 0x00, 0x91, 0x2D, 0x00, 0x02, 0xB1, 0x40, 0x00, 0x00, 0xB1, 0x40, 0x7F, 0x00,
0x91, 0x26, 0x6E, 0x00, 0x91, 0x32, 0x6E, 0x81, 0x20, 0x91, 0x26, 0x00, 0x00, 0x91, 0x32, 0x00,
0x20, 0x91, 0x26, 0x6E, 0x00, 0x91, 0x32, 0x6E, 0x5E, 0x91, 0x26, 0x00, 0x00, 0x91, 0x32, 0x00,
0x02, 0x91, 0x26, 0x6E, 0x00, 0x91, 0x32, 0x6E, 0x81, 0x20, 0x91, 0x26, 0x00, 0x00, 0x91, 0x32,
0x00, 0x20, 0x91, 0x26, 0x6E, 0x00, 0x91, 0x32, 0x6E, 0x5E, 0x91, 0x26, 0x00, 0x00, 0x91, 0x32,
0x00, 0x02, 0xB1, 0x40, 0x00, 0x00, 0xB1, 0x40, 0x7F, 0x00, 0x91, 0x22, 0x6E, 0x00, 0x91, 0x2E,
0x6E, 0x81, 0x20, 0x91, 0x22, 0x00, 0x00, 0x91, 0x2E, 0x00, 0x20, 0x91, 0x22, 0x6E, 0x00, 0x91,
0x2E, 0x6E, 0x5E, 0x91, 0x22, 0x00, 0x00, 0x91, 0x2E, 0x00, 0x02, 0x91, 0x22, 0x6E, 0x00, 0x91,
0x2E, 0x6E, 0x81, 0x20, 0x91, 0x22, 0x00, 0x00, 0x91, 0x2E, 0x00, 0x20, 0x91, 0x22, 0x6E, 0x00,
0x91, 0x2E, 0x6E, 0x5E, 0x91, 0x22, 0x00, 0x00, 0x91, 0x2E, 0x00, 0x02, 0xB1, 0x40, 0x00, 0x00,
0xB1, 0x40, 0x7F, 0x00, 0x91, 0x1D, 0x6E, 0x00, 0x91, 0x29, 0x6E, 0x81, 0x20, 0x91, 0x1D, 0x00,
0x00, 0x91, 0x29, 0x00, 0x20, 0x91, 0x1D, 0x6E, 0x00, 0x91, 0x29, 0x6E, 0x5E, 0x91, 0x1D, 0x00,
0x00, 0x91, 0x29, 0x00, 0x02, 0x91, 0x1D, 0x6E, 0x00, 0x91, 0x29, 0x6E, 0x81, 0x20, 0x91, 0x1D,
0x00, 0x00, 0x91, 0x29, 0x00, 0x20, 0x91, 0x1D, 0x6E, 0x00, 0x91, 0x29, 0x6E, 0x5E, 0x91, 0x1D,
0x00, 0x00, 0x91, 0x29, 0x00, 0x02, 0xB1, 0x40, 0x00, 0x00, 0xB1, 0x40, 0x7F, 0x00, 0x91, 0x24,
0x6E, 0x00, 0x91, 0x30, 0x6E, 0x81, 0x20, 0x91, 0x24, 0x00, 0x00, 0x91, 0x30, 0x00, 0x20, 0x91,
0x24, 0x6E, 0x00, 0x91, 0x30, 0x6E, 0x5E, 0x91, 0x24, 0x00, 0x00, 0x91, 0x30, 0x00, 0x02, 0xB1,
0x40, 0x00, 0x00, 0xB1, 0x40, 0x7F, 0x00, 0x91, 0x21, 0x6E, 0x00, 0x91, 0x2D, 0x6E, 0x81, 0x20,
0x91, 0x21, 0x00, 0x00, 0x91, 0x2D, 0x00, 0x20, 0x91, 0x21, 0x6E, 0x00, 0x91, 0x2D, 0x6E, 0x5E,
0x91, 0x21, 0x00, 0x00, 0x91, 0x2D, 0x00, 0x02, 0xB1, 0x40, 0x00, 0x00, 0xB1, 0x40, 0x7F, 0x00,
0x91, 0x26, 0x6E, 0x00, 0x91, 0x32, 0x6E, 0x81, 0x20, 0x91, 0x26, 0x00, 0x00, 0x91, 0x32, 0x00,
0x20, 0x91, 0x26, 0x6E, 0x00, 0x91, 0x32, 0x6E, 0x5E, 0x91, 0x26, 0x00, 0x00, 0x91, 0x32, 0x00,
0x02, 0x91, 0x26, 0x6E, 0x00, 0x91, 0x32, 0x6E, 0x81, 0x20, 0x91, 0x26, 0x00, 0x00, 0x91, 0x32,
0x00, 0x20, 0x91, 0x26, 0x6E, 0x00, 0x91, 0x32, 0x6E, 0x5E, 0x91, 0x26, 0x00, 0x00, 0x91, 0x32,
0x00, 0x02, 0xB1, 0x40, 0x00, 0x00, 0xB1, 0x40, 0x7F, 0x00, 0x91, 0x26, 0x6E, 0x00, 0x91, 0x32,
0x6E, 0x81, 0x20, 0x91, 0x26, 0x00, 0x00, 0x91, 0x32, 0x00, 0x20, 0x91, 0x26, 0x6E, 0x00, 0x91,
0x32, 0x6E, 0x5E, 0x91, 0x26, 0x00, 0x00, 0x91, 0x32, 0x00, 0x02, 0x91, 0x26, 0x6E, 0x00, 0x91,
0x32, 0x6E, 0x81, 0x20, 0x91, 0x26, 0x00, 0x00, 0x91, 0x32, 0x00, 0x20, 0x91, 0x26, 0x6E, 0x00,
0x91, 0x32, 0x6E, 0x5E, 0x91, 0x26, 0x00, 0x00, 0x91, 0x32, 0x00, 0x02, 0xB1, 0x40, 0x00, 0x00,
0xB1, 0x40, 0x7F, 0x00, 0x91, 0x22, 0x6E, 0x00, 0x91, 0x2E, 0x6E, 0x81, 0x20, 0x91, 0x22, 0x00,
0x00, 0x91, 0x2E, 0x00, 0x20, 0x91, 0x22, 0x6E, 0x00, 0x91, 0x2E, 0x6E, 0x5E, 0x91, 0x22, 0x00,
0x00, 0x91, 0x2E, 0x00, 0x02, 0x91, 0x22, 0x6E, 0x00, 0x91, 0x2E, 0x6E, 0x81, 0x20, 0x91, 0x22,
0x00, 0x00, 0x91, 0x2E, 0x00, 0x20, 0x91, 0x22, 0x6E, 0x00, 0x91, 0x2E, 0x6E, 0x5E, 0x91, 0x22,
0x00, 0x00, 0x91, 0x2E, 0x00, 0x02, 0xB1, 0x40, 0x00, 0x00, 0xB1, 0x40, 0x7F, 0x00, 0x91, 0x1F,
0x6E, 0x00, 0x91, 0x2B, 0x6E, 0x81, 0x20, 0x91, 0x1F, 0x00, 0x00, 0x91, 0x2B, 0x00, 0x20, 0x91,
0x1F, 0x6E, 0x00, 0x91, 0x2B, 0x6E, 0x5E, 0x91, 0x1F, 0x00, 0x00, 0x91, 0x2B, 0x00, 0x02, 0x91,
0x1F, 0x6E, 0x00, 0x91, 0x2B, 0x6E, 0x81, 0x20, 0x91, 0x1F, 0x00, 0x00, 0x91, 0x2B, 0x00, 0x20,
0x91, 0x1F, 0x6E, 0x00, 0x91, 0x2B, 0x6E, 0x5E, 0x91, 0x1F, 0x00, 0x00, 0x91, 0x2B, 0x00, 0x02,
0xB1, 0x40, 0x00, 0x00, 0xB1, 0x40, 0x7F, 0x00, 0x91, 0x26, 0x6E, 0x00, 0x91, 0x32, 0x6E, 0x81,
0x20, 0x91, 0x26, 0x00, 0x00, 0x91, 0x32, 0x00, 0x20, 0x91, 0x26, 0x6E, 0x00, 0x91, 0x32, 0x6E,
0x5E, 0x91, 0x26, 0x00, 0x00, 0x91, 0x32, 0x00, 0x02, 0x91, 0x26, 0x6E, 0x00, 0x91, 0x32, 0x6E,
0x81, 0x20, 0x91, 0x26, 0x00, 0x00, 0x91, 0x32, 0x00, 0x20, 0x91, 0x26, 0x6E, 0x00, 0x91, 0x32,
0x6E, 0x5E, 0x91, 0x26, 0x00, 0x00, 0x91, 0x32, 0x00, 0x02, 0xB1, 0x40, 0x00, 0x00, 0xB1, 0x40,
0x7F, 0x00, 0x91, 0x22, 0x6E, 0x00, 0x91, 0x2E, 0x6E, 0x81, 0x20, 0x91, 0x22, 0x00, 0x00, 0x91,
0x2E, 0x00, 0x20, 0x91, 0x22, 0x6E, 0x00, 0x91, 0x2E, 0x6E, 0x5E, 0x91, 0x22, 0x00, 0x00, 0x91,
0x2E, 0x00, 0x02, 0x91, 0x22, 0x6E, 0x00, 0x91, 0x2E, 0x6E, 0x81, 0x20, 0x91, 0x22, 0x00, 0x00,
0x91, 0x2E, 0x00, 0x20, 0x91, 0x22, 0x6E, 0x00, 0x91, 0x2E, 0x6E, 0x5E, 0x91, 0x22, 0x00, 0x00,
0x91, 0x2E, 0x00, 0x02, 0xB1, 0x40, 0x00, 0x00, 0xB1, 0x40, 0x7F, 0x00, 0x91, 0x26, 0x6E, 0x00,
0x91, 0x32, 0x6E, 0x81, 0x20, 0x91, 0x26, 0x00, 0x00, 0x91, 0x32, 0x00, 0x20, 0x91, 0x26, 0x6E,
0x00, 0x91, 0x32, 0x6E, 0x5E, 0x91, 0x26, 0x00, 0x00, 0x91, 0x32, 0x00, 0x02, 0x91, 0x26, 0x6E,
0x00, 0x91, 0x32, 0x6E, 0x81, 0x20, 0x91, 0x26, 0x00, 0x00, 0x91, 0x32, 0x00, 0x20, 0x91, 0x26,
0x6E, 0x00, 0x91, 0x32, 0x6E, 0x5E, 0x91, 0x26, 0x00, 0x00, 0x91, 0x32, 0x00, 0x02, 0xB1, 0x40,
0x00, 0x00, 0xB1, 0x40, 0x7F, 0x00, 0x91, 0x21, 0x6E, 0x00, 0x91, 0x2D, 0x6E, 0x81, 0x20, 0x91,
0x21, 0x00, 0x00, 0x91, 0x2D, 0x00, 0x20, 0x91, 0x21, 0x6E, 0x00, 0x91, 0x2D, 0x6E, 0x5E, 0x91,
0x21, 0x00, 0x00, 0x91, 0x2D, 0x00, 0x02, 0x91, 0x21, 0x6E, 0x00, 0x91, 0x2D, 0x6E, 0x81, 0x20,
0x91, 0x21, 0x00, 0x00, 0x91, 0x2D, 0x00, 0x20, 0x91, 0x21, 0x6E, 0x00, 0x91, 0x2D, 0x6E, 0x5E,
0x91, 0x21, 0x00, 0x00, 0x91, 0x2D, 0x00, 0x02, 0xB1, 0x40, 0x00, 0x00, 0xB1, 0x40, 0x7F, 0x00,
0x91, 0x26, 0x6E, 0x00, 0x91, 0x32, 0x6E, 0x81, 0x20, 0x91, 0x26, 0x00, 0x00, 0x91, 0x32, 0x00,
0x20, 0x91, 0x26, 0x6E, 0x00, 0x91, 0x32, 0x6E, 0x81, 0x20, 0x91, 0x26, 0x00, 0x00, 0x91, 0x32,
0x00, 0x20, 0xB1, 0x40, 0x00, 0x00, 0xB1, 0x40, 0x7F, 0x00, 0x91, 0x24, 0x6E, 0x00, 0x91, 0x30,
0x6E, 0x81, 0x20, 0x91, 0x24, 0x00, 0x00, 0x91, 0x30, 0x00, 0x20, 0x91, 0x24, 0x6E, 0x00, 0x91,
0x30, 0x6E, 0x81, 0x20, 0x91, 0x24, 0x00, 0x00, 0x91, 0x30, 0x00, 0x20, 0x91, 0x24, 0x6E, 0x00,
0x91, 0x30, 0x6E, 0x81, 0x20, 0x91, 0x24, 0x00, 0x00, 0x91, 0x30, 0x00, 0x20, 0xB1, 0x40, 0x00,
0x00, 0xB1, 0x40, 0x7F, 0x00, 0x91, 0x22, 0x6E, 0x00, 0x91, 0x2E, 0x6E, 0x81, 0x20, 0x91, 0x22,
0x00, 0x00, 0x91, 0x2E, 0x00, 0x20, 0xB1, 0x40, 0x00, 0x00, 0xB1, 0x40, 0x7F, 0x00, 0x91, 0x21,
0x6E, 0x00, 0x91, 0x2D, 0x6E, 0x81, 0x20, 0x91, 0x21, 0x00, 0x00, 0x91, 0x2D, 0x00, 0x20, 0x91,
0x21, 0x6E, 0x00, 0x91, 0x2D, 0x6E, 0x5E, 0x91, 0x21, 0x00, 0x00, 0x91, 0x2D, 0x00, 0x02, 0x91,
0x21, 0x6E, 0x00, 0x91, 0x2D, 0x6E, 0x81, 0x20, 0x91, 0x21, 0x00, 0x00, 0x91, 0x2D, 0x00, 0x20,
0x91, 0x21, 0x6E, 0x00, 0x91, 0x2D, 0x6E, 0x5E, 0x91, 0x21, 0x00, 0x00, 0x91, 0x2D, 0x00, 0x02,
0x91, 0x21, 0x6E, 0x00, 0x91, 0x2D, 0x6E, 0x81, 0x20, 0x91, 0x21, 0x00, 0x00, 0x91, 0x2D, 0x00,
0x20, 0x91, 0x21, 0x6E, 0x00, 0x91, 0x2D, 0x6E, 0x5E, 0x91, 0x21, 0x00, 0x00, 0x91, 0x2D, 0x00,
0x02, 0x91, 0x21, 0x6E, 0x00, 0x91, 0x2D, 0x6E, 0x81, 0x20, 0x91, 0x21, 0x00, 0x00, 0x91, 0x2D,
0x00, 0x20, 0x91, 0x21, 0x6E, 0x00, 0x91, 0x2D, 0x6E, 0x5E, 0x91, 0x21, 0x00, 0x00, 0x91, 0x2D,
0x00, 0x02, 0xB1, 0x40, 0x00, 0x00, 0xB1, 0x40, 0x7F, 0x00, 0x91, 0x1F, 0x6E, 0x00, 0x91, 0x2B,
0x6E, 0x81, 0x20, 0x91, 0x1F, 0x00, 0x00, 0x91, 0x2B, 0x00, 0x20, 0x91, 0x1F, 0x6E, 0x00, 0x91,
0x2B, 0x6E, 0x5E, 0x91, 0x1F, 0x00, 0x00, 0x91, 0x2B, 0x00, 0x02, 0x91, 0x1F, 0x6E, 0x00, 0x91,
0x2B, 0x6E, 0x81, 0x20, 0x91, 0x1F, 0x00, 0x00, 0x91, 0x2B, 0x00, 0x20, 0x91, 0x1F, 0x6E, 0x00,
0x91, 0x2B, 0x6E, 0x5E, 0x91, 0x1F, 0x00, 0x00, 0x91, 0x2B, 0x00, 0x02, 0x91, 0x1F, 0x6E, 0x00,
0x91, 0x2B, 0x6E, 0x81, 0x20, 0x91, 0x1F, 0x00, 0x00, 0x91, 0x2B, 0x00, 0x20, 0x91, 0x1F, 0x6E,
0x00, 0x91, 0x2B, 0x6E, 0x5E, 0x91, 0x1F, 0x00, 0x00, 0x91, 0x2B, 0x00, 0x02, 0x91, 0x1F, 0x6E,
0x00, 0x91, 0x2B, 0x6E, 0x81, 0x20, 0x91, 0x1F, 0x00, 0x00, 0x91, 0x2B, 0x00, 0x20, 0x91, 0x1F,
0x6E, 0x00, 0x91, 0x2B, 0x6E, 0x5E, 0x91, 0x1F, 0x00, 0x00, 0x91, 0x2B, 0x00, 0x02, 0xB1, 0x40,
0x00, 0x00, 0xB1, 0x40, 0x7F, 0x00, 0x91, 0x21, 0x6E, 0x00, 0x91, 0x2D, 0x6E, 0x81, 0x20, 0x91,
0x21, 0x00, 0x00, 0x91, 0x2D, 0x00, 0x20, 0x91, 0x21, 0x6E, 0x00, 0x91, 0x2D, 0x6E, 0x5E, 0x91,
0x21, 0x00, 0x00, 0x91, 0x2D, 0x00, 0x02, 0xB1, 0x40, 0x00, 0x00, 0xB1, 0x40, 0x7F, 0x00, 0x91,
0x21, 0x6E, 0x00, 0x91, 0x2D, 0x6E, 0x81, 0x20, 0x91, 0x21, 0x00, 0x00, 0x91, 0x2D, 0x00, 0x20,
0x91, 0x21, 0x6E, 0x00, 0x91, 0x2D, 0x6E, 0x5E, 0x91, 0x21, 0x00, 0x00, 0x91, 0x2D, 0x00, 0x02,
0x91, 0x21, 0x6E, 0x00, 0x91, 0x2D, 0x6E, 0x81, 0x20, 0x91, 0x21, 0x00, 0x00, 0x91, 0x2D, 0x00,
0x20, 0x91, 0x21, 0x6E, 0x00, 0x91, 0x2D, 0x6E, 0x5E, 0x91, 0x21, 0x00, 0x00, 0x91, 0x2D, 0x00,
0x02, 0x91, 0x21, 0x6E, 0x00, 0x91, 0x2D, 0x6E, 0x81, 0x20, 0x91, 0x21, 0x00, 0x00, 0x91, 0x2D,
0x00, 0x20, 0x91, 0x21, 0x6E, 0x00, 0x91, 0x2D, 0x6E, 0x5E, 0x91, 0x21, 0x00, 0x00, 0x91, 0x2D,
0x00, 0x02, 0xB1, 0x40, 0x00, 0x00, 0xB1, 0x40, 0x7F, 0x00, 0x91, 0x26, 0x6E, 0x00, 0x91, 0x32,
0x6E, 0x81, 0x20, 0x91, 0x26, 0x00, 0x00, 0x91, 0x32, 0x00, 0x20, 0x91, 0x26, 0x6E, 0x00, 0x91,
0x32, 0x6E, 0x5E, 0x91, 0x26, 0x00, 0x00, 0x91, 0x32, 0x00, 0x02, 0x91, 0x26, 0x6E, 0x00, 0x91,
0x32, 0x6E, 0x81, 0x20, 0x91, 0x26, 0x00, 0x00, 0x91, 0x32, 0x00, 0x20, 0x91, 0x26, 0x6E, 0x00,
0x91, 0x32, 0x6E, 0x5E, 0x91, 0x26, 0x00, 0x00, 0x91, 0x32, 0x00, 0x02, 0x91, 0x26, 0x6E, 0x00,
0x91, 0x32, 0x6E, 0x81, 0x20, 0x91, 0x26, 0x00, 0x00, 0x91, 0x32, 0x00, 0x20, 0x91, 0x26, 0x6E,
0x00, 0x91, 0x32, 0x6E, 0x5E, 0x91, 0x26, 0x00, 0x00, 0x91, 0x32, 0x00, 0x02, 0x91, 0x26, 0x6E,
0x00, 0x91, 0x32, 0x6E, 0x5E, 0x91, 0x26, 0x00, 0x00, 0x91, 0x32, 0x00, 0x02, 0x91, 0x26, 0x6E,
0x00, 0x91, 0x32, 0x6E, 0x5E, 0x91, 0x26, 0x00, 0x00, 0x91, 0x32, 0x00, 0x02, 0x91, 0x26, 0x6E,
0x00, 0x91, 0x32, 0x6E, 0x5E, 0x91, 0x26, 0x00, 0x00, 0x91, 0x32, 0x00, 0x02, 0xB1, 0x40, 0x00,
0x00, 0xB1, 0x40, 0x7F, 0x00, 0x91, 0x24, 0x6E, 0x00, 0x91, 0x30, 0x6E, 0x81, 0x20, 0x91, 0x24,
0x00, 0x00, 0x91, 0x30, 0x00, 0x20, 0x91, 0x24, 0x6E, 0x00, 0x91, 0x30, 0x6E, 0x5E, 0x91, 0x24,
0x00, 0x00, 0x91, 0x30, 0x00, 0x02, 0x91, 0x24, 0x6E, 0x00, 0x91, 0x30, 0x6E, 0x81, 0x20, 0x91,
0x24, 0x00, 0x00, 0x91, 0x30, 0x00, 0x20, 0x91, 0x24, 0x6E, 0x00, 0x91, 0x30, 0x6E, 0x5E, 0x91,
0x24, 0x00, 0x00, 0x91, 0x30, 0x00, 0x02, 0xB1, 0x40, 0x00, 0x00, 0xB1, 0x40, 0x7F, 0x00, 0x91,
0x29, 0x6E, 0x00, 0x91, 0x35, 0x6E, 0x81, 0x20, 0x91, 0x29, 0x00, 0x00, 0x91, 0x35, 0x00, 0x20,
0x91, 0x29, 0x6E, 0x00, 0x91, 0x35, 0x6E, 0x5E, 0x91, 0x29, 0x00, 0x00, 0x91, 0x35, 0x00, 0x02,
0x91, 0x29, 0x6E, 0x00, 0x91, 0x35, 0x6E, 0x5E, 0x91, 0x29, 0x00, 0x00, 0x91, 0x35, 0x00, 0x02,
0x91, 0x29, 0x6E, 0x00, 0x91, 0x35, 0x6E, 0x5E, 0x91, 0x29, 0x00, 0x00, 0x91, 0x35, 0x00, 0x02,
0x91, 0x29, 0x6E, 0x00, 0x91, 0x35, 0x6E, 0x5E, 0x91, 0x29, 0x00, 0x00, 0x91, 0x35, 0x00, 0x02,
0xB1, 0x40, 0x00, 0x00, 0xB1, 0x40, 0x7F, 0x00, 0x91, 0x26, 0x6E, 0x00, 0x91, 0x32, 0x6E, 0x81,
0x20, 0x91, 0x26, 0x00, 0x00, 0x91, 0x32, 0x00, 0x20, 0x91, 0x26, 0x6E, 0x00, 0x91, 0x32, 0x6E,
0x5E, 0x91, 0x26, 0x00, 0x00, 0x91, 0x32, 0x00, 0x02, 0x91, 0x26, 0x6E, 0x00, 0x91, 0x32, 0x6E,
0x81, 0x20, 0x91, 0x26, 0x00, 0x00, 0x91, 0x32, 0x00, 0x20, 0x91, 0x26, 0x6E, 0x00, 0x91, 0x32,
0x6E, 0x5E, 0x91, 0x26, 0x00, 0x00, 0x91, 0x32, 0x00, 0x02, 0x91, 0x26, 0x6E, 0x00, 0x91, 0x32,
0x6E, 0x81, 0x20, 0x91, 0x26, 0x00, 0x00, 0x91, 0x32, 0x00, 0x20, 0x91, 0x26, 0x6E, 0x00, 0x91,
0x32, 0x6E, 0x5E, 0x91, 0x26, 0x00, 0x00, 0x91, 0x32, 0x00, 0x02, 0x91, 0x26, 0x6E, 0x00, 0x91,
0x32, 0x6E, 0x5E, 0x91, 0x26, 0x00, 0x00, 0x91, 0x32, 0x00, 0x02, 0x91, 0x26, 0x6E, 0x00, 0x91,
0x32, 0x6E, 0x5E, 0x91, 0x26, 0x00, 0x00, 0x91, 0x32, 0x00, 0x02, 0x91, 0x26, 0x6E, 0x00, 0x91,
0x32, 0x6E, 0x5E, 0x91, 0x26, 0x00, 0x00, 0x91, 0x32, 0x00, 0x02, 0xB1, 0x40, 0x00, 0x00, 0xB1,
0x40, 0x7F, 0x00, 0x91, 0x21, 0x6E, 0x00, 0x91, 0x2D, 0x6E, 0x81, 0x20, 0x91, 0x21, 0x00, 0x00,
0x91, 0x2D, 0x00, 0x20, 0x91, 0x21, 0x6E, 0x00, 0x91, 0x2D, 0x6E, 0x5E, 0x91, 0x21, 0x00, 0x00,
0x91, 0x2D, 0x00, 0x02, 0x91, 0x21, 0x6E, 0x00, 0x91, 0x2D, 0x6E, 0x81, 0x20, 0x91, 0x21, 0x00,
0x00, 0x91, 0x2D, 0x00, 0x20, 0x91, 0x21, 0x6E, 0x00, 0x91, 0x2D, 0x6E, 0x5E, 0x91, 0x21, 0x00,
0x00, 0x91, 0x2D, 0x00, 0x02, 0xB1, 0x40, 0x00, 0x00, 0xB1, 0x40, 0x7F, 0x00, 0x91, 0x26, 0x6E,
0x00, 0x91, 0x32, 0x6E, 0x81, 0x20, 0x91, 0x26, 0x00, 0x00, 0x91, 0x32, 0x00, 0x20, 0x91, 0x26,
0x6E, 0x00, 0x91, 0x32, 0x6E, 0x5E, 0x91, 0x26, 0x00, 0x00, 0x91, 0x32, 0x00, 0x02, 0x91, 0x26,
0x6E, 0x00, 0x91, 0x32, 0x6E, 0x81, 0x20, 0x91, 0x26, 0x00, 0x00, 0x91, 0x32, 0x00, 0x20, 0x91,
0x26, 0x6E, 0x00, 0x91, 0x32, 0x6E, 0x5E, 0x91, 0x26, 0x00, 0x00, 0x91, 0x32, 0x00, 0x02, 0xB1,
0x40, 0x00, 0x00, 0xB1, 0x40, 0x7F, 0x00, 0x91, 0x26, 0x6E, 0x00, 0x91, 0x32, 0x6E, 0x81, 0x20,
0x91, 0x26, 0x00, 0x00, 0x91, 0x32, 0x00, 0x20, 0x91, 0x26, 0x6E, 0x00, 0x91, 0x32, 0x6E, 0x5E,
0x91, 0x26, 0x00, 0x00, 0x91, 0x32, 0x00, 0x02, 0x91, 0x26, 0x6E, 0x00, 0x91, 0x32, 0x6E, 0x81,
0x20, 0x91, 0x26, 0x00, 0x00, 0x91, 0x32, 0x00, 0x20, 0x91, 0x26, 0x6E, 0x00, 0x91, 0x32, 0x6E,
0x5E, 0x91, 0x26, 0x00, 0x00, 0x91, 0x32, 0x00, 0x02, 0xB1, 0x40, 0x00, 0x00, 0xB1, 0x40, 0x7F,
0x00, 0x91, 0x24, 0x6E, 0x00, 0x91, 0x30, 0x6E, 0x81, 0x20, 0x91, 0x24, 0x00, 0x00, 0x91, 0x30,
0x00, 0x20, 0x91, 0x24, 0x6E, 0x00, 0x91, 0x30, 0x6E, 0x5E, 0x91, 0x24, 0x00, 0x00, 0x91, 0x30,
0x00, 0x02, 0x91, 0x24, 0x6E, 0x00, 0x91, 0x30, 0x6E, 0x5E, 0x91, 0x24, 0x00, 0x00, 0x91, 0x30,
0x00, 0x02, 0x91, 0x24, 0x6E, 0x00, 0x91, 0x30, 0x6E, 0x5E, 0x91, 0x24, 0x00, 0x00, 0x91, 0x30,
0x00, 0x02, 0x91, 0x24, 0x6E, 0x00, 0x91, 0x30, 0x6E, 0x5E, 0x91, 0x24, 0x00, 0x00, 0x91, 0x30,
0x00, 0x02, 0xB1, 0x40, 0x00, 0x00, 0xB1, 0x40, 0x7F, 0x00, 0x91, 0x29, 0x6E, 0x00, 0x91, 0x35,
0x6E, 0x81, 0x20, 0x91, 0x29, 0x00, 0x00, 0x91, 0x35, 0x00, 0x20, 0x91, 0x29, 0x6E, 0x00, 0x91,
0x35, 0x6E, 0x5E, 0x91, 0x29, 0x00, 0x00, 0x91, 0x35, 0x00, 0x02, 0x91, 0x29, 0x6E, 0x00, 0x91,
0x35, 0x6E, 0x5E, 0x91, 0x29, 0x00, 0x00, 0x91, 0x35, 0x00, 0x02, 0x91, 0x29, 0x6E, 0x00, 0x91,
0x35, 0x6E, 0x5E, 0x91, 0x29, 0x00, 0x00, 0x91, 0x35, 0x00, 0x02, 0x91, 0x29, 0x6E, 0x00, 0x91,
0x35, 0x6E, 0x5E, 0x91, 0x29, 0x00, 0x00, 0x91, 0x35, 0x00, 0x02, 0xB1, 0x40, 0x00, 0x00, 0xB1,
0x40, 0x7F, 0x00, 0x91, 0x24, 0x6E, 0x00, 0x91, 0x30, 0x6E, 0x81, 0x20, 0x91, 0x24, 0x00, 0x00,
0x91, 0x30, 0x00, 0x20, 0x91, 0x24, 0x6E, 0x00, 0x91, 0x30, 0x6E, 0x5E, 0x91, 0x24, 0x00, 0x00,
0x91, 0x30, 0x00, 0x02, 0x91, 0x24, 0x6E, 0x00, 0x91, 0x30, 0x6E, 0x5E, 0x91, 0x24, 0x00, 0x00,
0x91, 0x30, 0x00, 0x02, 0x91, 0x24, 0x6E, 0x00, 0x91, 0x30, 0x6E, 0x5E, 0x91, 0x24, 0x00, 0x00,
0x91, 0x30, 0x00, 0x02, 0x91, 0x24, 0x6E, 0x00, 0x91, 0x30, 0x6E, 0x5E, 0x91, 0x24, 0x00, 0x00,
0x91, 0x30, 0x00, 0x02, 0xB1, 0x40, 0x00, 0x00, 0xB1, 0x40, 0x7F, 0x00, 0x91, 0x29, 0x6E, 0x00,
0x91, 0x35, 0x6E, 0x81, 0x20, 0x91, 0x29, 0x00, 0x00, 0x91, 0x35, 0x00, 0x20, 0x91, 0x29, 0x6E,
0x00, 0x91, 0x35, 0x6E, 0x5E, 0x91, 0x29, 0x00, 0x00, 0x91, 0x35, 0x00, 0x02, 0x91, 0x29, 0x6E,
0x00, 0x91, 0x35, 0x6E, 0x5E, 0x91, 0x29, 0x00, 0x00, 0x91, 0x35, 0x00, 0x02, 0x91, 0x29, 0x6E,
0x00, 0x91, 0x35, 0x6E, 0x5E, 0x91, 0x29, 0x00, 0x00, 0x91, 0x35, 0x00, 0x02, 0x91, 0x29, 0x6E,
0x00, 0x91, 0x35, 0x6E, 0x5E, 0x91, 0x29, 0x00, 0x00, 0x91, 0x35, 0x00, 0x02, 0xB1, 0x40, 0x00,
0x00, 0xB1, 0x40, 0x7F, 0x00, 0x91, 0x21, 0x6E, 0x00, 0x91, 0x2D, 0x6E, 0x81, 0x20, 0x91, 0x21,
0x00, 0x00, 0x91, 0x2D, 0x00, 0x20, 0x91, 0x21, 0x6E, 0x00, 0x91, 0x2D, 0x6E, 0x5E, 0x91, 0x21,
0x00, 0x00, 0x91, 0x2D, 0x00, 0x02, 0x91, 0x21, 0x6E, 0x00, 0x91, 0x2D, 0x6E, 0x5E, 0x91, 0x21,
0x00, 0x00, 0x91, 0x2D, 0x00, 0x02, 0x91, 0x21, 0x6E, 0x00, 0x91, 0x2D, 0x6E, 0x5E, 0x91, 0x21,
0x00, 0x00, 0x91, 0x2D, 0x00, 0x02, 0x91, 0x21, 0x6E, 0x00, 0x91, 0x2D, 0x6E, 0x5E, 0x91, 0x21,
0x00, 0x00, 0x91, 0x2D, 0x00, 0x02, 0xB1, 0x40, 0x00, 0x00, 0xB1, 0x40, 0x7F, 0x00, 0x91, 0x26,
0x6E, 0x00, 0x91, 0x32, 0x6E, 0x81, 0x20, 0x91, 0x26, 0x00, 0x00, 0x91, 0x32, 0x00, 0x20, 0x91,
0x26, 0x6E, 0x00, 0x91, 0x32, 0x6E, 0x5E, 0x91, 0x26, 0x00, 0x00, 0x91, 0x32, 0x00, 0x02, 0x91,
0x26, 0x6E, 0x00, 0x91, 0x32, 0x6E, 0x81, 0x20, 0x91, 0x26, 0x00, 0x00, 0x91, 0x32, 0x00, 0x20,
0x91, 0x26, 0x6E, 0x00, 0x91, 0x32, 0x6E, 0x5E, 0x91, 0x26, 0x00, 0x00, 0x91, 0x32, 0x00, 0x02,
0xB1, 0x40, 0x00, 0x00, 0xB1, 0x40, 0x7F, 0x00, 0x91, 0x26, 0x6E, 0x00, 0x91, 0x32, 0x6E, 0x81,
0x20, 0x91, 0x26, 0x00, 0x00, 0x91, 0x32, 0x00, 0x20, 0x91, 0x26, 0x6E, 0x00, 0x91, 0x32, 0x6E,
0x5E, 0x91, 0x26, 0x00, 0x00, 0x91, 0x32, 0x00, 0x02, 0x91, 0x26, 0x6E, 0x00, 0x91, 0x32, 0x6E,
0x5E, 0x91, 0x26, 0x00, 0x00, 0x91, 0x32, 0x00, 0x02, 0x91, 0x26, 0x6E, 0x00, 0x91, 0x32, 0x6E,
0x5E, 0x91, 0x26, 0x00, 0x00, 0x91, 0x32, 0x00, 0x02, 0x91, 0x26, 0x6E, 0x00, 0x91, 0x32, 0x6E,
0x5E, 0x91, 0x26, 0x00, 0x00, 0x91, 0x32, 0x00, 0x02, 0xB1, 0x40, 0x00, 0x00, 0xB1, 0x40, 0x7F,
0x00, 0x91, 0x26, 0x6E, 0x00, 0x91, 0x32, 0x6E, 0x81, 0x20, 0x91, 0x26, 0x00, 0x00, 0x91, 0x32,
0x00, 0x20, 0x91, 0x26, 0x6E, 0x00, 0x91, 0x32, 0x6E, 0x5E, 0x91, 0x26, 0x00, 0x00, 0x91, 0x32,
0x00, 0x02, 0x91, 0x26, 0x6E, 0x00, 0x91, 0x32, 0x6E, 0x5E, 0x91, 0x26, 0x00, 0x00, 0x91, 0x32,
0x00, 0x02, 0x91, 0x26, 0x6E, 0x00, 0x91, 0x32, 0x6E, 0x5E, 0x91, 0x26, 0x00, 0x00, 0x91, 0x32,
0x00, 0x02, 0x91, 0x26, 0x6E, 0x00, 0x91, 0x32, 0x6E, 0x5E, 0x91, 0x26, 0x00, 0x00, 0x91, 0x32,
0x00, 0x02, 0xB1, 0x40, 0x00, 0x00, 0xB1, 0x40, 0x7F, 0x00, 0x91, 0x24, 0x6E, 0x00, 0x91, 0x30,
0x6E, 0x81, 0x20, 0x91, 0x24, 0x00, 0x00, 0x91, 0x30, 0x00, 0x20, 0x91, 0x24, 0x6E, 0x00, 0x91,
0x30, 0x6E, 0x5E, 0x91, 0x24, 0x00, 0x00, 0x91, 0x30, 0x00, 0x02, 0x91, 0x24, 0x6E, 0x00, 0x91,
0x30, 0x6E, 0x5E, 0x91, 0x24, 0x00, 0x00, 0x91, 0x30, 0x00, 0x02, 0x91, 0x24, 0x6E, 0x00, 0x91,
0x30, 0x6E, 0x5E, 0x91, 0x24, 0x00, 0x00, 0x91, 0x30, 0x00, 0x02, 0x91, 0x24, 0x6E, 0x00, 0x91,
0x30, 0x6E, 0x5E, 0x91, 0x24, 0x00, 0x00, 0x91, 0x30, 0x00, 0x02, 0xB1, 0x40, 0x00, 0x00, 0xB1,
0x40, 0x7F, 0x00, 0x91, 0x29, 0x6E, 0x00, 0x91, 0x35, 0x6E, 0x81, 0x20, 0x91, 0x29, 0x00, 0x00,
0x91, 0x35, 0x00, 0x20, 0x91, 0x29, 0x6E, 0x00, 0x91, 0x35, 0x6E, 0x5E, 0x91, 0x29, 0x00, 0x00,
0x91, 0x35, 0x00, 0x02, 0x91, 0x29, 0x6E, 0x00, 0x91, 0x35, 0x6E, 0x5E, 0x91, 0x29, 0x00, 0x00,
0x91, 0x35, 0x00, 0x02, 0x91, 0x29, 0x6E, 0x00, 0x91, 0x35, 0x6E, 0x5E, 0x91, 0x29, 0x00, 0x00,
0x91, 0x35, 0x00, 0x02, 0x91, 0x29, 0x6E, 0x00, 0x91, 0x35, 0x6E, 0x5E, 0x91, 0x29, 0x00, 0x00,
0x91, 0x35, 0x00, 0x02, 0xB1, 0x40, 0x00, 0x00, 0xB1, 0x40, 0x7F, 0x00, 0x91, 0x22, 0x6E, 0x00,
0x91, 0x2E, 0x6E, 0x81, 0x20, 0x91, 0x22, 0x00, 0x00, 0x91, 0x2E, 0x00, 0x20, 0x91, 0x22, 0x6E,
0x00, 0x91, 0x2E, 0x6E, 0x5E, 0x91, 0x22, 0x00, 0x00, 0x91, 0x2E, 0x00, 0x02, 0x91, 0x22, 0x6E,
0x00, 0x91, 0x2E, 0x6E, 0x5E, 0x91, 0x22, 0x00, 0x00, 0x91, 0x2E, 0x00, 0x02, 0x91, 0x22, 0x6E,
0x00, 0x91, 0x2E, 0x6E, 0x5E, 0x91, 0x22, 0x00, 0x00, 0x91, 0x2E, 0x00, 0x02, 0x91, 0x22, 0x6E,
0x00, 0x91, 0x2E, 0x6E, 0x5E, 0x91, 0x22, 0x00, 0x00, 0x91, 0x2E, 0x00, 0x02, 0xB1, 0x40, 0x00,
0x00, 0xB1, 0x40, 0x7F, 0x00, 0x91, 0x26, 0x6E, 0x00, 0x91, 0x32, 0x6E, 0x81, 0x20, 0x91, 0x26,
0x00, 0x00, 0x91, 0x32, 0x00, 0x20, 0x91, 0x26, 0x6E, 0x00, 0x91, 0x32, 0x6E, 0x5E, 0x91, 0x26,
0x00, 0x00, 0x91, 0x32, 0x00, 0x02, 0x91, 0x26, 0x6E, 0x00, 0x91, 0x32, 0x6E, 0x5E, 0x91, 0x26,
0x00, 0x00, 0x91, 0x32, 0x00, 0x02, 0x91, 0x26, 0x6E, 0x00, 0x91, 0x32, 0x6E, 0x5E, 0x91, 0x26,
0x00, 0x00, 0x91, 0x32, 0x00, 0x02, 0x91, 0x26, 0x6E, 0x00, 0x91, 0x32, 0x6E, 0x5E, 0x91, 0x26,
0x00, 0x00, 0x91, 0x32, 0x00, 0x02, 0xB1, 0x40, 0x00, 0x00, 0xB1, 0x40, 0x7F, 0x00, 0x91, 0x1F,
0x6E, 0x00, 0x91, 0x2B, 0x6E, 0x81, 0x20, 0x91, 0x1F, 0x00, 0x00, 0x91, 0x2B, 0x00, 0x20, 0x91,
0x1F, 0x6E, 0x00, 0x91, 0x2B, 0x6E, 0x5E, 0x91, 0x1F, 0x00, 0x00, 0x91, 0x2B, 0x00, 0x02, 0x91,
0x1F, 0x6E, 0x00, 0x91, 0x2B, 0x6E, 0x5E, 0x91, 0x1F, 0x00, 0x00, 0x91, 0x2B, 0x00, 0x02, 0x91,
0x1F, 0x6E, 0x00, 0x91, 0x2B, 0x6E, 0x5E, 0x91, 0x1F, 0x00, 0x00, 0x91, 0x2B, 0x00, 0x02, 0x91,
0x1F, 0x6E, 0x00, 0x91, 0x2B, 0x6E, 0x5E, 0x91, 0x1F, 0x00, 0x00, 0x91, 0x2B, 0x00, 0x02, 0xB1,
0x40, 0x00, 0x00, 0xB1, 0x40, 0x7F, 0x00, 0x91, 0x21, 0x6E, 0x00, 0x91, 0x2D, 0x6E, 0x81, 0x20,
0x91, 0x21, 0x00, 0x00, 0x91, 0x2D, 0x00, 0x20, 0x91, 0x21, 0x6E, 0x00, 0x91, 0x2D, 0x6E, 0x5E,
0x91, 0x21, 0x00, 0x00, 0x91, 0x2D, 0x00, 0x02, 0x91, 0x21, 0x6E, 0x00, 0x91, 0x2D, 0x6E, 0x5E,
0x91, 0x21, 0x00, 0x00, 0x91, 0x2D, 0x00, 0x02, 0x91, 0x21, 0x6E, 0x00, 0x91, 0x2D, 0x6E, 0x5E,
0x91, 0x21, 0x00, 0x00, 0x91, 0x2D, 0x00, 0x02, 0x91, 0x21, 0x6E, 0x00, 0x91, 0x2D, 0x6E, 0x5E,
0x91, 0x21, 0x00, 0x00, 0x91, 0x2D, 0x00, 0x02, 0xB1, 0x40, 0x00, 0x00, 0xB1, 0x40, 0x7F, 0x00,
0x91, 0x21, 0x6E, 0x00, 0x91, 0x2D, 0x6E, 0x81, 0x20, 0x91, 0x21, 0x00, 0x00, 0x91, 0x2D, 0x00,
0x20, 0x91, 0x21, 0x6E, 0x00, 0x91, 0x2D, 0x6E, 0x5E, 0x91, 0x21, 0x00, 0x00, 0x91, 0x2D, 0x00,
0x02, 0x91, 0x21, 0x6E, 0x00, 0x91, 0x2D, 0x6E, 0x5E, 0x91, 0x21, 0x00, 0x00, 0x91, 0x2D, 0x00,
0x02, 0x91, 0x21, 0x6E, 0x00, 0x91, 0x2D, 0x6E, 0x5E, 0x91, 0x21, 0x00, 0x00, 0x91, 0x2D, 0x00,
0x02, 0x91, 0x21, 0x6E, 0x00, 0x91, 0x2D, 0x6E, 0x5E, 0x91, 0x21, 0x00, 0x00, 0x91, 0x2D, 0x00,
0x02, 0xB1, 0x40, 0x00, 0x00, 0xB1, 0x40, 0x7F, 0x00, 0x91, 0x26, 0x6E, 0x00, 0x91, 0x32, 0x6E,
0x81, 0x20, 0x91, 0x26, 0x00, 0x00, 0x91, 0x32, 0x00, 0x20, 0x91, 0x26, 0x6E, 0x00, 0x91, 0x32,
0x6E, 0x5E, 0x91, 0x26, 0x00, 0x00, 0x91, 0x32, 0x00, 0x02, 0x91, 0x26, 0x6E, 0x00, 0x91, 0x32,
0x6E, 0x5E, 0x91, 0x26, 0x00, 0x00, 0x91, 0x32, 0x00, 0x02, 0x91, 0x26, 0x6E, 0x00, 0x91, 0x32,
0x6E, 0x5E, 0x91, 0x26, 0x00, 0x00, 0x91, 0x32, 0x00, 0x02, 0x91, 0x26, 0x6E, 0x00, 0x91, 0x32,
0x6E, 0x5E, 0x91, 0x26, 0x00, 0x00, 0x91, 0x32, 0x00, 0x02, 0xB1, 0x40, 0x00, 0x00, 0xB1, 0x40,
0x7F, 0x00, 0x91, 0x1F, 0x6E, 0x00, 0x91, 0x2B, 0x6E, 0x81, 0x20, 0x91, 0x1F, 0x00, 0x00, 0x91,
0x2B, 0x00, 0x20, 0x91, 0x1F, 0x6E, 0x00, 0x91, 0x2B, 0x6E, 0x5E, 0x91, 0x1F, 0x00, 0x00, 0x91,
0x2B, 0x00, 0x02, 0x91, 0x1F, 0x6E, 0x00, 0x91, 0x2B, 0x6E, 0x5E, 0x91, 0x1F, 0x00, 0x00, 0x91,
0x2B, 0x00, 0x02, 0x91, 0x1F, 0x6E, 0x00, 0x91, 0x2B, 0x6E, 0x5E, 0x91, 0x1F, 0x00, 0x00, 0x91,
0x2B, 0x00, 0x02, 0x91, 0x1F, 0x6E, 0x00, 0x91, 0x2B, 0x6E, 0x5E, 0x91, 0x1F, 0x00, 0x00, 0x91,
0x2B, 0x00, 0x02, 0xB1, 0x40, 0x00, 0x00, 0xB1, 0x40, 0x7F, 0x00, 0x91, 0x29, 0x6E, 0x00, 0x91,
0x35, 0x6E, 0x81, 0x20, 0x91, 0x29, 0x00, 0x00, 0x91, 0x35, 0x00, 0x20, 0x91, 0x29, 0x6E, 0x00,
0x91, 0x35, 0x6E, 0x5E, 0x91, 0x29, 0x00, 0x00, 0x91, 0x35, 0x00, 0x02, 0x91, 0x29, 0x6E, 0x00,
0x91, 0x35, 0x6E, 0x81, 0x20, 0x91, 0x29, 0x00, 0x00, 0x91, 0x35, 0x00, 0x20, 0x91, 0x29, 0x6E,
0x00, 0x91, 0x35, 0x6E, 0x5E, 0x91, 0x29, 0x00, 0x00, 0x91, 0x35, 0x00, 0x02, 0xB1, 0x40, 0x00,
0x00, 0xB1, 0x40, 0x7F, 0x00, 0x91, 0x24, 0x6E, 0x00, 0x91, 0x30, 0x6E, 0x81, 0x20, 0x91, 0x24,
0x00, 0x00, 0x91, 0x30, 0x00, 0x20, 0x91, 0x24, 0x6E, 0x00, 0x91, 0x30, 0x6E, 0x5E, 0x91, 0x24,
0x00, 0x00, 0x91, 0x30, 0x00, 0x02, 0x91, 0x24, 0x6E, 0x00, 0x91, 0x30, 0x6E, 0x5E, 0x91, 0x24,
0x00, 0x00, 0x91, 0x30, 0x00, 0x02, 0x91, 0x24, 0x6E, 0x00, 0x91, 0x30, 0x6E, 0x5E, 0x91, 0x24,
0x00, 0x00, 0x91, 0x30, 0x00, 0x02, 0x91, 0x24, 0x6E, 0x00, 0x91, 0x30, 0x6E, 0x5E, 0x91, 0x24,
0x00, 0x00, 0x91, 0x30, 0x00, 0x02, 0xB1, 0x40, 0x00, 0x00, 0xB1, 0x40, 0x7F, 0x00, 0x91, 0x1F,
0x6E, 0x00, 0x91, 0x2B, 0x6E, 0x81, 0x20, 0x91, 0x1F, 0x00, 0x00, 0x91, 0x2B, 0x00, 0x20, 0x91,
0x1F, 0x6E, 0x00, 0x91, 0x2B, 0x6E, 0x5E, 0x91, 0x1F, 0x00, 0x00, 0x91, 0x2B, 0x00, 0x02, 0x91,
0x1F, 0x6E, 0x00, 0x91, 0x2B, 0x6E, 0x5E, 0x91, 0x1F, 0x00, 0x00, 0x91, 0x2B, 0x00, 0x02, 0x91,
0x1F, 0x6E, 0x00, 0x91, 0x2B, 0x6E, 0x5E, 0x91, 0x1F, 0x00, 0x00, 0x91, 0x2B, 0x00, 0x02, 0x91,
0x1F, 0x6E, 0x00, 0x91, 0x2B, 0x6E, 0x5E, 0x91, 0x1F, 0x00, 0x00, 0x91, 0x2B, 0x00, 0x02, 0xB1,
0x40, 0x00, 0x00, 0xB1, 0x40, 0x7F, 0x00, 0x91, 0x21, 0x6E, 0x00, 0x91, 0x2D, 0x6E, 0x81, 0x20,
0x91, 0x21, 0x00, 0x00, 0x91, 0x2D, 0x00, 0x20, 0x91, 0x21, 0x6E, 0x00, 0x91, 0x2D, 0x6E, 0x5E,
0x91, 0x21, 0x00, 0x00, 0x91, 0x2D, 0x00, 0x02, 0x91, 0x21, 0x6E, 0x00, 0x91, 0x2D, 0x6E, 0x5E,
0x91, 0x21, 0x00, 0x00, 0x91, 0x2D, 0x00, 0x02, 0x91, 0x21, 0x6E, 0x00, 0x91, 0x2D, 0x6E, 0x5E,
0x91, 0x21, 0x00, 0x00, 0x91, 0x2D, 0x00, 0x02, 0x91, 0x21, 0x6E, 0x00, 0x91, 0x2D, 0x6E, 0x5E,
0x91, 0x21, 0x00, 0x00, 0x91, 0x2D, 0x00, 0x02, 0x91, 0x21, 0x6E, 0x00, 0x91, 0x2D, 0x6E, 0x81,
0x20, 0x91, 0x21, 0x00, 0x00, 0x91, 0x2D, 0x00, 0x20, 0x91, 0x21, 0x6E, 0x00, 0x91, 0x2D, 0x6E,
0x5E, 0x91, 0x21, 0x00, 0x00, 0x91, 0x2D, 0x00, 0x02, 0x91, 0x21, 0x6E, 0x00, 0x91, 0x2D, 0x6E,
0x5E, 0x91, 0x21, 0x00, 0x00, 0x91, 0x2D, 0x00, 0x02, 0x91, 0x21, 0x6E, 0x00, 0x91, 0x2D, 0x6E,
0x5E, 0x91, 0x21, 0x00, 0x00, 0x91, 0x2D, 0x00, 0x02, 0x91, 0x21, 0x6E, 0x00, 0x91, 0x2D, 0x6E,
0x5E, 0x91, 0x21, 0x00, 0x00, 0x91, 0x2D, 0x00, 0x02, 0xB1, 0x40, 0x00, 0x00, 0xB1, 0x40, 0x7F,
0x00, 0x91, 0x26, 0x6E, 0x00, 0x91, 0x32, 0x6E, 0x81, 0x20, 0x91, 0x26, 0x00, 0x00, 0x91, 0x32,
0x00, 0x20, 0x91, 0x26, 0x6E, 0x00, 0x91, 0x32, 0x6E, 0x5E, 0x91, 0x26, 0x00, 0x00, 0x91, 0x32,
0x00, 0x02, 0x91, 0x26, 0x6E, 0x00, 0x91, 0x32, 0x6E, 0x5E, 0x91, 0x26, 0x00, 0x00, 0x91, 0x32,
0x00, 0x02, 0x91, 0x26, 0x6E, 0x00, 0x91, 0x32, 0x6E, 0x5E, 0x91, 0x26, 0x00, 0x00, 0x91, 0x32,
0x00, 0x02, 0x91, 0x26, 0x6E, 0x00, 0x91, 0x32, 0x6E, 0x5E, 0x91, 0x26, 0x00, 0x00, 0x91, 0x32,
0x00, 0x02, 0xB1, 0x40, 0x00, 0x00, 0xB1, 0x40, 0x7F, 0x00, 0x91, 0x26, 0x6E, 0x00, 0x91, 0x32,
0x6E, 0x81, 0x20, 0x91, 0x26, 0x00, 0x00, 0x91, 0x32, 0x00, 0x20, 0x91, 0x26, 0x6E, 0x00, 0x91,
0x32, 0x6E, 0x5E, 0x91, 0x26, 0x00, 0x00, 0x91, 0x32, 0x00, 0x02, 0x91, 0x26, 0x6E, 0x00, 0x91,
0x32, 0x6E, 0x5E, 0x91, 0x26, 0x00, 0x00, 0x91, 0x32, 0x00, 0x02, 0x91, 0x26, 0x6E, 0x00, 0x91,
0x32, 0x6E, 0x5E, 0x91, 0x26, 0x00, 0x00, 0x91, 0x32, 0x00, 0x02, 0x91, 0x26, 0x6E, 0x00, 0x91,
0x32, 0x6E, 0x5E, 0x91, 0x26, 0x00, 0x00, 0x91, 0x32, 0x00, 0x02, 0xB1, 0x40, 0x00, 0x00, 0xB1,
0x40, 0x7F, 0x00, 0x91, 0x22, 0x6E, 0x00, 0x91, 0x2E, 0x6E, 0x81, 0x20, 0x91, 0x22, 0x00, 0x00,
0x91, 0x2E, 0x00, 0x20, 0x91, 0x22, 0x6E, 0x00, 0x91, 0x2E, 0x6E, 0x5E, 0x91, 0x22, 0x00, 0x00,
0x91, 0x2E, 0x00, 0x02, 0x91, 0x22, 0x6E, 0x00, 0x91, 0x2E, 0x6E, 0x5E, 0x91, 0x22, 0x00, 0x00,
0x91, 0x2E, 0x00, 0x02, 0x91, 0x22, 0x6E, 0x00, 0x91, 0x2E, 0x6E, 0x5E, 0x91, 0x22, 0x00, 0x00,
0x91, 0x2E, 0x00, 0x02, 0x91, 0x22, 0x6E, 0x00, 0x91, 0x2E, 0x6E, 0x5E, 0x91, 0x22, 0x00, 0x00,
0x91, 0x2E, 0x00, 0x02, 0xB1, 0x40, 0x00, 0x00, 0xB1, 0x40, 0x7F, 0x00, 0x91, 0x29, 0x6E, 0x00,
0x91, 0x35, 0x6E, 0x81, 0x20, 0x91, 0x29, 0x00, 0x00, 0x91, 0x35, 0x00, 0x20, 0x91, 0x29, 0x6E,
0x00, 0x91, 0x35, 0x6E, 0x5E, 0x91, 0x29, 0x00, 0x00, 0x91, 0x35, 0x00, 0x02, 0x91, 0x29, 0x6E,
0x00, 0x91, 0x35, 0x6E, 0x5E, 0x91, 0x29, 0x00, 0x00, 0x91, 0x35, 0x00, 0x02, 0x91, 0x29, 0x6E,
0x00, 0x91, 0x35, 0x6E, 0x5E, 0x91, 0x29, 0x00, 0x00, 0x91, 0x35, 0x00, 0x02, 0x91, 0x29, 0x6E,
0x00, 0x91, 0x35, 0x6E, 0x5E, 0x91, 0x29, 0x00, 0x00, 0x91, 0x35, 0x00, 0x02, 0xB1, 0x40, 0x00,
0x00, 0xB1, 0x40, 0x7F, 0x00, 0x91, 0x24, 0x6E, 0x00, 0x91, 0x30, 0x6E, 0x81, 0x20, 0x91, 0x24,
0x00, 0x00, 0x91, 0x30, 0x00, 0x20, 0x91, 0x24, 0x6E, 0x00, 0x91, 0x30, 0x6E, 0x5E, 0x91, 0x24,
0x00, 0x00, 0x91, 0x30, 0x00, 0x02, 0x91, 0x24, 0x6E, 0x00, 0x91, 0x30, 0x6E, 0x5E, 0x91, 0x24,
0x00, 0x00, 0x91, 0x30, 0x00, 0x02, 0x91, 0x24, 0x6E, 0x00, 0x91, 0x30, 0x6E, 0x5E, 0x91, 0x24,
0x00, 0x00, 0x91, 0x30, 0x00, 0x02, 0x91, 0x24, 0x6E, 0x00, 0x91, 0x30, 0x6E, 0x5E, 0x91, 0x24,
0x00, 0x00, 0x91, 0x30, 0x00, 0x02, 0xB1, 0x40, 0x00, 0x00, 0xB1, 0x40, 0x7F, 0x00, 0x91, 0x1F,
0x6E, 0x00, 0x91, 0x2B, 0x6E, 0x81, 0x20, 0x91, 0x1F, 0x00, 0x00, 0x91, 0x2B, 0x00, 0x20, 0x91,
0x1F, 0x6E, 0x00, 0x91, 0x2B, 0x6E, 0x5E, 0x91, 0x1F, 0x00, 0x00, 0x91, 0x2B, 0x00, 0x02, 0x91,
0x1F, 0x6E, 0x00, 0x91, 0x2B, 0x6E, 0x5E, 0x91, 0x1F, 0x00, 0x00, 0x91, 0x2B, 0x00, 0x02, 0x91,
0x1F, 0x6E, 0x00, 0x91, 0x2B, 0x6E, 0x5E, 0x91, 0x1F, 0x00, 0x00, 0x91, 0x2B, 0x00, 0x02, 0x91,
0x1F, 0x6E, 0x00, 0x91, 0x2B, 0x6E, 0x5E, 0x91, 0x1F, 0x00, 0x00, 0x91, 0x2B, 0x00, 0x02, 0xB1,
0x40, 0x00, 0x00, 0xB1, 0x40, 0x7F, 0x00, 0x91, 0x21, 0x6E, 0x00, 0x91, 0x2D, 0x6E, 0x81, 0x20,
0x91, 0x21, 0x00, 0x00, 0x91, 0x2D, 0x00, 0x20, 0x91, 0x21, 0x6E, 0x00, 0x91, 0x2D, 0x6E, 0x5E,
0x91, 0x21, 0x00, 0x00, 0x91, 0x2D, 0x00, 0x02, 0x91, 0x21, 0x6E, 0x00, 0x91, 0x2D, 0x6E, 0x5E,
0x91, 0x21, 0x00, 0x00, 0x91, 0x2D, 0x00, 0x02, 0x91, 0x21, 0x6E, 0x00, 0x91, 0x2D, 0x6E, 0x5E,
0x91, 0x21, 0x00, 0x00, 0x91, 0x2D, 0x00, 0x02, 0x91, 0x21, 0x6E, 0x00, 0x91, 0x2D, 0x6E, 0x5E,
0x91, 0x21, 0x00, 0x00, 0x91, 0x2D, 0x00, 0x02, 0x91, 0x21, 0x6E, 0x00, 0x91, 0x2D, 0x6E, 0x81,
0x20, 0x91, 0x21, 0x00, 0x00, 0x91, 0x2D, 0x00, 0x20, 0x91, 0x21, 0x6E, 0x00, 0x91, 0x2D, 0x6E,
0x5E, 0x91, 0x21, 0x00, 0x00, 0x91, 0x2D, 0x00, 0x02, 0x91, 0x21, 0x6E, 0x00, 0x91, 0x2D, 0x6E,
0x5E, 0x91, 0x21, 0x00, 0x00, 0x91, 0x2D, 0x00, 0x02, 0x91, 0x21, 0x6E, 0x00, 0x91, 0x2D, 0x6E,
0x5E, 0x91, 0x21, 0x00, 0x00, 0x91, 0x2D, 0x00, 0x02, 0x91, 0x21, 0x6E, 0x00, 0x91, 0x2D, 0x6E,
0x5E, 0x91, 0x21, 0x00, 0x00, 0x91, 0x2D, 0x00, 0x02, 0xB1, 0x40, 0x00, 0x00, 0xB1, 0x40, 0x7F,
0x00, 0x91, 0x26, 0x6E, 0x00, 0x91, 0x32, 0x6E, 0x82, 0x00, 0x91, 0x26, 0x00, 0x00, 0x91, 0x32,
0x00, 0x20, 0x91, 0x26, 0x6E, 0x00, 0x91, 0x32, 0x6E, 0x5E, 0x91, 0x26, 0x00, 0x00, 0x91, 0x32,
0x00, 0x02, 0x91, 0x26, 0x6E, 0x00, 0x91, 0x32, 0x6E, 0x5E, 0x91, 0x26, 0x00, 0x00, 0x91, 0x32,
0x00, 0x02, 0x91, 0x26, 0x6E, 0x00, 0x91, 0x32, 0x6E, 0x5E, 0x91, 0x26, 0x00, 0x00, 0x91, 0x32,
0x00, 0x02, 0xB1, 0x40, 0x00, 0x00, 0xB1, 0x40, 0x7F, 0x00, 0x91, 0x1A, 0x6E, 0x00, 0x91, 0x26,
0x6E, 0x85, 0x50, 0x91, 0x1A, 0x00, 0x00, 0x91, 0x26, 0x00, 0x00, 0xFF, 0x2F, 0x00};